<?xml version="1.0" encoding="utf-8"?>
<!-- Generator: Adobe Illustrator 27.5.0, SVG Export Plug-In . SVG Version: 6.00 Build 0)  -->
<svg version="1.1" xmlns="http://www.w3.org/2000/svg" xmlns:xlink="http://www.w3.org/1999/xlink" x="0px" y="0px"
	 viewBox="0 0 500 500" style="enable-background:new 0 0 500 500;" xml:space="preserve">
<g id="BACKGROUND">
	<rect style="fill:#FFFFFF;" width="500" height="500"/>
</g>
<g id="OBJECTS">
	<g>
		<path style="fill:#B6B9D1;" d="M462.146,443.197H34.736c-2.983,0-5.401-2.418-5.401-5.401l0,0c0-2.983,2.418-5.401,5.401-5.401
			h427.41c2.983,0,5.401,2.418,5.401,5.401l0,0C467.547,440.779,465.129,443.197,462.146,443.197z"/>
		<g>
			<g>
				<rect x="79.937" y="294.625" style="fill:#C46C3B;" width="265.848" height="10.527"/>
				<rect x="102.081" y="304.247" style="fill:#C46C3B;" width="11.781" height="133.549"/>
				<rect x="312.901" y="304.247" style="fill:#C46C3B;" width="11.781" height="133.549"/>
				<rect x="102.081" y="304.247" style="fill:#AA5327;" width="11.781" height="13.353"/>
				<rect x="312.901" y="304.247" style="fill:#AA5327;" width="11.781" height="13.353"/>
			</g>
			<g>
				<polygon style="fill:#171923;" points="268.781,289.569 239.852,289.569 241.787,270.589 266.846,270.589 				"/>
				<path style="fill:#2A2B3D;" d="M276.768,294.217h-44.76l0,0c0-3,2.432-5.433,5.433-5.433h33.894
					C274.335,288.785,276.768,291.217,276.768,294.217L276.768,294.217z"/>
				<path style="fill:#2A2B3D;" d="M302.758,272.223h-96.741c-5.255,0-9.514-4.26-9.514-9.514v-58.373
					c0-5.255,4.26-9.514,9.514-9.514h96.741c5.255,0,9.514,4.26,9.514,9.514v58.373
					C312.272,267.963,308.013,272.223,302.758,272.223z"/>
				<rect x="201.427" y="199.247" style="fill:#D0E6EF;" width="105.921" height="62.918"/>
				<path style="fill:#171923;" d="M257.383,267.594c0,1.654-1.341,2.995-2.995,2.995c-1.654,0-2.995-1.341-2.995-2.995
					c0-1.654,1.341-2.995,2.995-2.995C256.042,264.599,257.383,265.94,257.383,267.594z"/>
				<g>
					<rect x="206.391" y="203.168" style="fill:#FFFFFF;" width="95.995" height="4.932"/>
					<path style="fill:#D35473;" d="M210.354,205.747c0,0.58-0.47,1.05-1.05,1.05c-0.58,0-1.05-0.47-1.05-1.05
						c0-0.58,0.47-1.05,1.05-1.05C209.884,204.697,210.354,205.167,210.354,205.747z"/>
					<path style="fill:#FFC55A;" d="M214.272,205.747c0,0.58-0.47,1.05-1.05,1.05c-0.58,0-1.05-0.47-1.05-1.05
						c0-0.58,0.47-1.05,1.05-1.05C213.802,204.697,214.272,205.167,214.272,205.747z"/>
					<path style="fill:#54D15F;" d="M218.19,205.747c0,0.58-0.47,1.05-1.05,1.05c-0.58,0-1.05-0.47-1.05-1.05
						c0-0.58,0.47-1.05,1.05-1.05C217.72,204.697,218.19,205.167,218.19,205.747z"/>
					
						<line style="fill:none;stroke:#61648A;stroke-width:0.5;stroke-linecap:round;stroke-miterlimit:10;" x1="297.809" y1="204.548" x2="301.005" y2="204.548"/>
					
						<line style="fill:none;stroke:#61648A;stroke-width:0.5;stroke-linecap:round;stroke-miterlimit:10;" x1="297.809" y1="205.633" x2="301.005" y2="205.633"/>
					
						<line style="fill:none;stroke:#61648A;stroke-width:0.5;stroke-linecap:round;stroke-miterlimit:10;" x1="297.809" y1="206.719" x2="301.005" y2="206.719"/>
				</g>
				<g>
					<g>
						
							<line style="fill:none;stroke:#54D15F;stroke-linecap:round;stroke-miterlimit:10;" x1="271.764" y1="213.659" x2="279.204" y2="213.659"/>
						
							<line style="fill:none;stroke:#2D292A;stroke-linecap:round;stroke-miterlimit:10;" x1="280.689" y1="213.659" x2="284.176" y2="213.659"/>
						
							<line style="fill:none;stroke:#54D15F;stroke-linecap:round;stroke-miterlimit:10;" x1="285.464" y1="213.659" x2="296.471" y2="213.659"/>
						
							<line style="fill:none;stroke:#FFC55A;stroke-linecap:round;stroke-miterlimit:10;" x1="268.042" y1="218.353" x2="278.965" y2="218.353"/>
						
							<line style="fill:none;stroke:#D35473;stroke-linecap:round;stroke-miterlimit:10;" x1="280.45" y1="218.353" x2="287.455" y2="218.353"/>
						
							<line style="fill:none;stroke:#54D15F;stroke-linecap:round;stroke-miterlimit:10;" x1="288.742" y1="218.353" x2="293.42" y2="218.353"/>
						
							<line style="fill:none;stroke:#D35473;stroke-linecap:round;stroke-miterlimit:10;" x1="294.883" y1="218.353" x2="299.561" y2="218.353"/>
						
							<line style="fill:none;stroke:#2D292A;stroke-linecap:round;stroke-miterlimit:10;" x1="269.023" y1="223.047" x2="275.342" y2="223.047"/>
						
							<line style="fill:none;stroke:#D35473;stroke-linecap:round;stroke-miterlimit:10;" x1="276.827" y1="223.047" x2="281.789" y2="223.047"/>
						
							<line style="fill:none;stroke:#FFC55A;stroke-linecap:round;stroke-miterlimit:10;" x1="283.076" y1="223.047" x2="292.059" y2="223.047"/>
						
							<line style="fill:none;stroke:#2D292A;stroke-linecap:round;stroke-miterlimit:10;" x1="293.266" y1="223.047" x2="296.055" y2="223.047"/>
						
							<line style="fill:none;stroke:#FFC55A;stroke-linecap:round;stroke-miterlimit:10;" x1="266.038" y1="232.436" x2="267.656" y2="232.436"/>
						
							<line style="fill:none;stroke:#54D15F;stroke-linecap:round;stroke-miterlimit:10;" x1="269.141" y1="232.436" x2="278.322" y2="232.436"/>
						
							<line style="fill:none;stroke:#D35473;stroke-linecap:round;stroke-miterlimit:10;" x1="279.609" y1="232.436" x2="286.211" y2="232.436"/>
						
							<line style="fill:none;stroke:#54D15F;stroke-linecap:round;stroke-miterlimit:10;" x1="287.203" y1="232.436" x2="295.653" y2="232.436"/>
						
							<line style="fill:none;stroke:#FFC55A;stroke-linecap:round;stroke-miterlimit:10;" x1="284.714" y1="241.825" x2="296.969" y2="241.825"/>
						
							<line style="fill:none;stroke:#54D15F;stroke-linecap:round;stroke-miterlimit:10;" x1="269.023" y1="237.131" x2="275.342" y2="237.131"/>
						
							<line style="fill:none;stroke:#D35473;stroke-linecap:round;stroke-miterlimit:10;" x1="276.827" y1="237.131" x2="280.201" y2="237.131"/>
						
							<line style="fill:none;stroke:#2D292A;stroke-linecap:round;stroke-miterlimit:10;" x1="281.489" y1="237.131" x2="288.356" y2="237.131"/>
						
							<line style="fill:none;stroke:#D35473;stroke-linecap:round;stroke-miterlimit:10;" x1="289.957" y1="237.131" x2="296.823" y2="237.131"/>
						
							<line style="fill:none;stroke:#FFC55A;stroke-linecap:round;stroke-miterlimit:10;" x1="269.323" y1="241.825" x2="274.141" y2="241.825"/>
						
							<line style="fill:none;stroke:#2D292A;stroke-linecap:round;stroke-miterlimit:10;" x1="275.626" y1="241.825" x2="277.678" y2="241.825"/>
						
							<line style="fill:none;stroke:#54D15F;stroke-linecap:round;stroke-miterlimit:10;" x1="278.965" y1="241.825" x2="283.191" y2="241.825"/>
						
							<line style="fill:none;stroke:#D35473;stroke-linecap:round;stroke-miterlimit:10;" x1="276.827" y1="250.644" x2="281.489" y2="250.644"/>
						
							<line style="fill:none;stroke:#2D292A;stroke-linecap:round;stroke-miterlimit:10;" x1="282.974" y1="250.644" x2="288.356" y2="250.644"/>
						
							<line style="fill:none;stroke:#FFC55A;stroke-linecap:round;stroke-miterlimit:10;" x1="289.643" y1="250.644" x2="298.25" y2="250.644"/>
						
							<line style="fill:none;stroke:#D35473;stroke-linecap:round;stroke-miterlimit:10;" x1="272.554" y1="255.338" x2="276.085" y2="255.338"/>
						
							<line style="fill:none;stroke:#2D292A;stroke-linecap:round;stroke-miterlimit:10;" x1="277.57" y1="255.338" x2="283.191" y2="255.338"/>
						
							<line style="fill:none;stroke:#FFC55A;stroke-linecap:round;stroke-miterlimit:10;" x1="284.478" y1="255.338" x2="289.581" y2="255.338"/>
						
							<line style="fill:none;stroke:#54D15F;stroke-linecap:round;stroke-miterlimit:10;" x1="291.04" y1="255.338" x2="298.949" y2="255.338"/>
					</g>
					
						<line style="opacity:0.21;fill:none;stroke:#383952;stroke-linecap:round;stroke-miterlimit:10;" x1="267.248" y1="213.659" x2="268.835" y2="213.659"/>
					
						<line style="opacity:0.21;fill:none;stroke:#383952;stroke-linecap:round;stroke-miterlimit:10;" x1="263.084" y1="218.353" x2="264.671" y2="218.353"/>
					
						<line style="opacity:0.21;fill:none;stroke:#383952;stroke-linecap:round;stroke-miterlimit:10;" x1="265.008" y1="223.047" x2="266.595" y2="223.047"/>
					
						<line style="opacity:0.21;fill:none;stroke:#383952;stroke-linecap:round;stroke-miterlimit:10;" x1="261.225" y1="227.742" x2="262.812" y2="227.742"/>
					
						<line style="opacity:0.21;fill:none;stroke:#383952;stroke-linecap:round;stroke-miterlimit:10;" x1="261.225" y1="232.436" x2="262.812" y2="232.436"/>
					
						<line style="opacity:0.21;fill:none;stroke:#383952;stroke-linecap:round;stroke-miterlimit:10;" x1="264.812" y1="237.131" x2="266.399" y2="237.131"/>
					
						<line style="opacity:0.21;fill:none;stroke:#383952;stroke-linecap:round;stroke-miterlimit:10;" x1="265.244" y1="241.825" x2="266.831" y2="241.825"/>
					
						<line style="opacity:0.21;fill:none;stroke:#383952;stroke-linecap:round;stroke-miterlimit:10;" x1="261.225" y1="246.52" x2="262.812" y2="246.52"/>
					
						<line style="opacity:0.21;fill:none;stroke:#383952;stroke-linecap:round;stroke-miterlimit:10;" x1="271.389" y1="250.644" x2="272.976" y2="250.644"/>
					
						<line style="opacity:0.21;fill:none;stroke:#383952;stroke-linecap:round;stroke-miterlimit:10;" x1="267.656" y1="255.338" x2="269.243" y2="255.338"/>
				</g>
				<g>
					<rect x="206.391" y="212.495" style="opacity:0.33;fill:#61648A;" width="24.034" height="22.714"/>
					<rect x="233.429" y="212.495" style="fill:#61648A;" width="21.03" height="2.059"/>
					<rect x="233.429" y="217.659" style="fill:#61648A;" width="21.03" height="2.059"/>
					<rect x="233.429" y="222.822" style="opacity:0.33;fill:#61648A;" width="21.03" height="2.059"/>
					<rect x="233.429" y="227.986" style="opacity:0.33;fill:#61648A;" width="21.03" height="2.059"/>
					<rect x="233.429" y="233.15" style="opacity:0.33;fill:#61648A;" width="21.03" height="2.059"/>
					<rect x="206.462" y="238.671" style="fill:#61648A;" width="23.963" height="16.668"/>
					<rect x="233.429" y="238.671" style="fill:#D35473;" width="21.03" height="7.849"/>
					<rect x="233.429" y="250.478" style="fill:#61648A;" width="21.03" height="4.86"/>
				</g>
			</g>
			<g>
				<path style="fill:#2A2B3D;" d="M249.453,419.562c-1.201,11.045-2.776,15.955,0,17.533c2.776,1.578,18.491,0,21.899,0
					c3.408,0,3.408-7.18-2.272-10.176c-5.68-2.996-6.816-13.708-6.816-13.708L249.453,419.562z"/>
				<path style="fill:#2A2B3D;" d="M178.115,419.562c-1.201,11.045-2.776,15.955,0,17.533c2.776,1.578,18.491,0,21.899,0
					c3.408,0,3.408-7.18-2.272-10.176c-5.68-2.996-6.816-13.708-6.816-13.708L178.115,419.562z"/>
				<path style="fill:#55597C;" d="M196.79,376.97c-0.31,11.85-1.17,22.98-2.66,29.89h-21.92l-8.16-47.82l-0.84-4.91
					c-4.65,0-8.44-3.76-8.44-8.4v-0.15c0.15-9.47,1.79-24.17,9.94-29.82c9.08-6.29,27.29,6.96,28.91,10.23
					c1.58,3.18,2.67,14.1,3.1,27.21C196.97,360.75,197,369.02,196.79,376.97z"/>
				<path style="opacity:0.36;fill:#383952;" d="M196.79,376.97c-7.74,3.34-14.06,23.97-15.73,29.89h-8.85l-8.16-47.82
					c0.99-1.63,2.09-2.96,3.26-3.69c3.98-2.49,26.96-2.19,29.41-2.15C196.97,360.75,197,369.02,196.79,376.97z"/>
				<path style="fill:#F4B8AB;" d="M268.816,286.122c6.987-2.634,11.852,0.429,13.113,2.591c1.261,2.162,1.982,4.144,1.441,5.225
					c-0.54,1.081-2.342,0-2.342,0s-6.126,1.141-10.811,0.481C265.533,293.758,268.816,286.122,268.816,286.122z"/>
				<path style="opacity:0.53;fill:#DD6595;" d="M269.998,288.153c3.791,2.039,10.415,4.919,10.383,5.409
					c-0.032,0.491-5.939,1.835-9.701,0.788C266.918,293.303,269.998,288.153,269.998,288.153z"/>
				<g>
					<path style="fill:#F4B8AB;" d="M202.443,202.884c2.646,10.837,0.719,23.615-8.57,24.637l0.038,3.813
						c0.028,2.825-2.239,5.137-5.064,5.165l0,0c-2.825,0.028-5.137-2.239-5.166-5.064l-0.038-3.813c0,0-7.471-3.088-9.005-7.723
						c-1.534-4.635-0.007-0.744-0.007-0.744l-0.85-18.964l28.874-0.287L202.443,202.884z"/>
					<path style="opacity:0.53;fill:#DD6595;" d="M193.873,227.522c-4.116,0.411-8.894,0.308-8.894,0.308l8.932,3.505
						L193.873,227.522z"/>
				</g>
				<path style="fill:#6D3744;" d="M202.893,204.981c8.199-5.176,6.648-15.856,0.837-12.068c0,0-9.162-9.424-23.362-4.283
					c-14.199,5.142-15.982,17.033-12.984,24.436c2.998,7.403,21.393,11.254,21.393,11.254l8.504-9.016L202.893,204.981z"/>
				<path style="fill:#6D3744;" d="M203.731,192.913c1.419-4.128-2.145-9.376-5.462-9.376c-3.317,0-3.134,5.698-3.134,5.698
					l5.665,7.498L203.731,192.913z"/>
				<path style="fill:#542633;" d="M197.608,212.053c-0.096,1.286-1.077,12.923-3.736,15.466l-11.445,0.156
					c0,0-12.632-2.573-14.744-13.07c-0.245-1.23-0.416-2.367-0.513-3.422c3.729,7.584,19.483,8.861,27.982-0.713
					C195.152,210.47,196.228,211.139,197.608,212.053z"/>
				<path style="fill:#F4B8AB;" d="M200.814,209.781c-2.381-4.242-5.115-2.426-5.641,0.056c-0.526,2.482,4.487,8.461,5.704,6.329
					C202.095,214.034,200.814,209.781,200.814,209.781z"/>
				<path style="opacity:0.53;fill:#DD6595;" d="M200.577,210.928c-2.107-2.168-3.122-1.259-2.96,1.014
					c0.162,2.273,2.92,3.876,3.801,3.215C202.299,214.497,200.577,210.928,200.577,210.928z"/>
				<path style="fill:#D35473;" d="M270.68,294.35c-1.11,2.21-29.91,6.64-37.29,5.17c-7.39-1.48-13.29-12.19-13.29-12.19v28.43
					h-55.39c0,0-5.38-26.13-8.38-43.6c-1.23-7.19-2.07-12.91-1.96-14.74c0.22-3.69,0.95-5.72,1.52-6.77v-0.01
					c0.39-0.72,0.7-0.97,0.7-0.97s6.64-12.18,22.52-14.03l0.37-4.8c12.92-2.58,22.15,0,22.52,2.22c0.37,2.21,0,4.39,0,4.39
					s15.51-4.03,26.59,11.85c11.07,15.88,15.51,28.42,15.51,28.42s21.04,4.44,23.63,7.03c1.06,1.06,1.94,2.5,2.52,3.97
					C271.09,290.84,271.33,293.04,270.68,294.35z"/>
				<path style="opacity:0.38;fill:#8E253E;" d="M270.68,294.35c-1.11,2.21-29.91,6.64-37.29,5.17
					c-7.39-1.48-13.29-12.19-13.29-12.19v28.43h-55.39c0,0-5.38-26.13-8.38-43.6l-0.44-21.51v-0.01c0,0,13.52,0.45,34.23,0.59
					c20.71,0.14,21.84,12.96,27.47,20.71c5.64,7.75,9.3,20.85,19.31,20.99c10,0.14,30.99,1.83,33.1-4.15l0.25-0.06
					C271.09,290.84,271.33,293.04,270.68,294.35z"/>
				<path style="fill:#61648A;" d="M265.8,405.18c-0.11,0.58-0.22,1.14-0.34,1.68h-21.91l-9-52.73h-39.41l-11.19-14.11l-19.24-24.26
					h55.39c0.84,0,1.71,0.01,2.61,0.03c15.1,0.27,38.62,2.9,42.25,10.2c1.3,2.63,2.27,10.57,2.8,20.66
					C268.77,365.41,268.3,391.63,265.8,405.18z"/>
				<path style="opacity:0.36;fill:#383952;" d="M265.8,405.18l-1.92,1.68h-20.33l-9-52.73h-39.41l-11.19-14.11l1.03-16.17
					l7.51-8.09h27.61c0.84,0,1.71,0.01,2.61,0.03c-3.12,26.67,16.27,33.63,28.68,32.95c6.59-0.36,12.35-1.28,16.37-2.09
					C268.77,365.41,268.3,391.63,265.8,405.18z"/>
				<polygon style="fill:#7D819E;" points="265.3,419.562 243.476,419.562 241.476,406.86 267.3,406.86 				"/>
				<polygon style="fill:#7D819E;" points="193.963,419.562 172.139,419.562 170.139,406.86 195.963,406.86 				"/>
			</g>
			<g>
				<rect x="155.03" y="427.453" style="fill:#55597C;" width="1.986" height="7.463"/>
				<rect x="169.146" y="427.453" style="fill:#55597C;" width="1.986" height="7.463"/>
				<rect x="183.261" y="427.453" style="fill:#55597C;" width="1.986" height="7.463"/>
				<path style="fill:#FFC55A;" d="M205.661,354.131H148.25c-3.892,0-7.046-3.155-7.046-7.047v-66.6
					c0-13.427,10.884-24.311,24.311-24.311h22.881c13.427,0,24.311,10.884,24.311,24.311v66.6
					C212.707,350.976,209.553,354.131,205.661,354.131z"/>
				<path style="fill:#F49947;" d="M205.661,354.131H148.25c-3.892,0-7.046-3.155-7.046-7.047v-66.6
					c0-13.427,10.884-24.311,24.311-24.311h22.881c13.427,0,24.311,10.884,24.311,24.311v66.6
					C212.707,350.976,209.553,354.131,205.661,354.131z"/>
				<path style="fill:#FFC55A;" d="M193.426,354.131h-57.411c-3.892,0-7.046-3.155-7.046-7.047v-66.6
					c0-13.427,10.884-24.311,24.311-24.311h22.881c13.427,0,24.311,10.884,24.311,24.311v66.6
					C200.473,350.976,197.318,354.131,193.426,354.131z"/>
				<path style="fill:#F49947;" d="M217.132,368.448h-62.116c-3.954,0-7.159-3.205-7.159-7.159v0c0-3.954,3.205-7.159,7.159-7.159
					h62.116c3.954,0,7.159,3.205,7.159,7.159v0C224.291,365.243,221.086,368.448,217.132,368.448z"/>
				<path style="fill:#FFC55A;" d="M198.913,368.448h-62.116c-3.954,0-7.159-3.205-7.159-7.159v0c0-3.954,3.205-7.159,7.159-7.159
					h62.116c3.954,0,7.159,3.205,7.159,7.159v0C206.071,365.243,202.866,368.448,198.913,368.448z"/>
				<rect x="167.401" y="374.244" style="fill:#14161E;" width="5.775" height="50.939"/>
				<path style="fill:#1F202D;" d="M178.459,374.244h-17.023c-1.196,0-2.165-0.97-2.165-2.165v-3.63h21.354v3.63
					C180.625,373.275,179.655,374.244,178.459,374.244z"/>
				<rect x="152.923" y="423.901" style="fill:#1F202D;" width="34.049" height="5.067"/>
				<rect x="159.751" y="312.605" style="fill:#2A2B3D;" width="7.561" height="55.843"/>
				<path style="fill:#1F202D;" d="M168.277,302.134h-9.49c-2.219,0-4.019,1.799-4.019,4.019v11.444c0,2.22,1.799,4.019,4.019,4.019
					h9.49c2.219,0,4.019-1.799,4.019-4.019v-11.444C172.296,303.934,170.496,302.134,168.277,302.134z"/>
				<path style="fill:#2A2B3D;" d="M163.901,306.998h-0.738c-2.219,0-4.019,1.799-4.019,4.019v1.717c0,2.22,1.799,4.019,4.019,4.019
					h0.738c2.219,0,4.019-1.799,4.019-4.019v-1.717C167.92,308.797,166.12,306.998,163.901,306.998z"/>
				<path style="fill:#14161E;" d="M159.124,435.421c0,1.712-1.388,3.1-3.1,3.1s-3.1-1.388-3.1-3.1s1.388-3.1,3.1-3.1
					S159.124,433.708,159.124,435.421z"/>
				<path style="fill:#14161E;" d="M173.239,435.421c0,1.712-1.388,3.1-3.1,3.1c-1.712,0-3.1-1.388-3.1-3.1s1.388-3.1,3.1-3.1
					C171.851,432.321,173.239,433.708,173.239,435.421z"/>
				<path style="fill:#14161E;" d="M187.355,435.421c0,1.712-1.388,3.1-3.1,3.1s-3.1-1.388-3.1-3.1s1.388-3.1,3.1-3.1
					S187.355,433.708,187.355,435.421z"/>
			</g>
			<g>
				<polyline style="fill:none;stroke:#61648A;stroke-width:4;stroke-miterlimit:10;" points="110.183,291.681 79.937,229.423 
					113.014,197.995 				"/>
				<path style="fill:#61648A;stroke:#2A2B3D;stroke-width:4;stroke-miterlimit:10;" d="M85.723,229.423
					c0,3.195-2.59,5.786-5.786,5.786c-3.196,0-5.786-2.59-5.786-5.786s2.59-5.786,5.786-5.786
					C83.133,223.637,85.723,226.228,85.723,229.423z"/>
				<path style="fill:#61648A;" d="M111.498,186.959L111.498,186.959c2.613-1.807,6.205-1.062,7.885,1.634l1.187,1.905l-9.002,5.953
					l-1.1-1.262C108.288,192.687,108.769,188.846,111.498,186.959z"/>
				<path style="fill:#FFC55A;" d="M137.31,215.983c0,2.697-2.186,4.882-4.882,4.882s-4.882-2.186-4.882-4.882
					c0-2.696,2.186-4.882,4.882-4.882S137.31,213.287,137.31,215.983z"/>
				<path style="fill:#2A2B3D;" d="M111.567,196.451l9.113,23.255c0.621,1.585,2.426,2.346,3.988,1.669
					c3.914-1.697,10.843-5.129,14.467-9.49c1.016-1.223,0.901-3.026-0.255-4.116l-18.311-17.272L111.567,196.451z"/>
				<rect x="95.43" y="289.301" style="fill:#2A2B3D;" width="29.507" height="4.76"/>
			</g>
			<g>
				<g>
					<rect x="208.255" y="71.611" style="fill:#D0E6EF;" width="92.751" height="92.751"/>
					
						<ellipse transform="matrix(0.2281 -0.9736 0.9736 0.2281 128.9514 305.8749)" style="fill:#61648A;" cx="257.383" cy="71.611" rx="16.936" ry="16.936"/>
					<rect x="233.994" y="105.165" style="fill:#61648A;" width="53.573" height="9.367"/>
					<rect x="224.627" y="105.165" style="fill:#FFFFFF;" width="9.367" height="9.367"/>
					<rect x="233.994" y="119.63" style="fill:#61648A;" width="53.573" height="9.367"/>
					<rect x="260.283" y="134.095" style="opacity:0.33;fill:#61648A;" width="27.284" height="4.683"/>
					<rect x="224.627" y="119.63" style="fill:#FFFFFF;" width="9.367" height="9.367"/>
				</g>
				<g>
					<rect x="292.875" y="79.36" style="fill:#D35473;" width="45.849" height="23.323"/>
					<polygon style="fill:#D35473;" points="305.934,99.508 298.151,113.437 318.635,100.737 					"/>
					<g>
						<path style="fill:#FFFFFF;" d="M307.606,91.022c0,1.188-0.963,2.151-2.151,2.151c-1.188,0-2.151-0.963-2.151-2.151
							c0-1.188,0.963-2.151,2.151-2.151C306.643,88.871,307.606,89.834,307.606,91.022z"/>
						<path style="fill:#FFFFFF;" d="M317.951,91.022c0,1.188-0.963,2.151-2.151,2.151c-1.188,0-2.151-0.963-2.151-2.151
							c0-1.188,0.963-2.151,2.151-2.151C316.988,88.871,317.951,89.834,317.951,91.022z"/>
						<circle style="fill:#FFFFFF;" cx="326.144" cy="91.022" r="2.151"/>
					</g>
				</g>
				<rect x="176.019" y="131.835" style="fill:#FFC55A;" width="40.071" height="27.76"/>
				
					<text transform="matrix(1 0 0 1 182.3889 152.5749)" style="fill:#FFFFFF; font-family:'Lato-Black'; font-size:20.0541px; letter-spacing:-2;">&lt;/&gt;</text>
				
					<text transform="matrix(1 0 0 1 250.0398 76.2305)" style="fill:#FFFFFF; font-family:'FontAwesome5FreeSolid'; font-size:14.3395px; letter-spacing:-1;">user</text>
			</g>
			<g>
				<path style="fill:#D35473;" d="M324.241,413.211c1.201,11.045,2.403,22.306-0.373,23.884c-2.776,1.578-18.491,0-21.899,0
					c-3.408,0-3.408-7.18,2.272-10.176c5.68-2.996,6.816-13.708,6.816-13.708H324.241z"/>
				<path style="fill:#D35473;" d="M392.72,419.562c1.201,11.045,2.776,15.955,0,17.533c-2.776,1.578-18.491,0-21.899,0
					c-3.408,0-3.408-7.18,2.272-10.176c5.68-2.996,5.708-8.537,5.708-8.537L392.72,419.562z"/>
				<path style="fill:#542633;" d="M301.405,147.094c-4.642,9.307-4.076,18.797,5.201,19.188
					C315.884,166.672,301.405,147.094,301.405,147.094z"/>
				<g>
					<g>
						<path style="fill:#F4B8AB;" d="M302.867,156.826c2.915,11.431,11.061,22.403,20.242,18.742l1.859,3.578
							c1.377,2.651,4.643,3.684,7.294,2.306l0,0c2.651-1.377,3.684-4.643,2.306-7.294l-1.859-3.578c0,0,5.44-6.594,4.57-11.683
							c-0.871-5.089-0.363-0.698-0.363-0.698l-8.628-18.126l-27.098,14.078L302.867,156.826z"/>
						<path style="opacity:0.53;fill:#DD6595;" d="M323.109,175.568c4.046-1.661,8.456-4.131,8.456-4.131l-6.597,7.71
							L323.109,175.568z"/>
					</g>
					<path style="fill:#6D3744;" d="M337.55,155.8c-0.3,5.77-1.78,10.77-2.89,11.98c-2.4,2.59-10.61,5.46-10.61,5.46
						c-3.74-0.5-10.02-3.22-15.11-7.48c-5.4-4.51-9.46-10.74-7.75-17.89c2.91-12.15,20.8-17.93,30.38-10.4
						C336.69,141.5,337.9,149.16,337.55,155.8z"/>
					<path style="fill:#542633;" d="M337.55,155.8c-0.3,5.77-1.78,10.77-2.89,11.98c-2.4,2.59-10.61,5.46-10.61,5.46
						c-3.74-0.5-10.02-3.22-15.11-7.48c0.15-1.85,0.66-3.61,1.87-4.69c3.55-3.19,13.95,4.29,16.3-7.75l2.19-0.75
						C329.3,152.57,334.08,154.43,337.55,155.8z"/>
					<path style="fill:#F4B8AB;" d="M307.815,162.455c0.116-5.143,3.57-4.806,5.294-2.75c1.724,2.055,0.015,10.128-2.181,8.742
						C308.732,167.061,307.815,162.455,307.815,162.455z"/>
					<path style="opacity:0.53;fill:#DD6595;" d="M308.606,163.408c0.89-3.07,2.289-2.726,3.267-0.524
						c0.978,2.203-0.8,5.069-1.951,4.89C308.771,167.595,308.606,163.408,308.606,163.408z"/>
				</g>
				<path style="fill:#FFC55A;" d="M330.136,140.934c-4.439,1.931-6.411,8.076-3.024,12.388c2.361,3.006,6.555,1.629,6.555,1.629
					L330.136,140.934z"/>
				<path style="fill:#6D3744;" d="M327.908,147.964c-1.387-6.806,5.658-12.584,11.821-9.378c1.589,0.826,2.877,2.13,3.551,3.815
					c2.311,5.776,2.166,13.271,9.242,14.289c0,0-8.52,9.105-17.04,3.618C330.709,157.234,328.728,151.986,327.908,147.964z"/>
				<path style="fill:#424866;" d="M353.347,174.359c13.766,0.241,28.621,17.875,32.812,29.438
					c4.19,11.562-6.857,25.626-6.857,25.626L353.347,174.359z"/>
				<path style="fill:#F4B8AB;" d="M269.998,238.909c-5.93-7.593-8.648-8.011-10.531-6.547s-8.993,5.565-10.248,6.547
					c-1.255,0.982,0.209,2.446,2.51,2.028c2.301-0.418,2.301-0.418,2.301-0.418s-1.046,5.438,1.673,7.947
					c2.719,2.51,11.294-1.046,11.294-1.046L269.998,238.909z"/>
				<path style="fill:#FFC55A;" d="M378.92,289.3c-1.33,5.9-5.02,16.62-9.85,29.5c-15.13,40.32-41.46,101.72-41.46,101.72
					l-22.39-2.14l33.4-165.96l0.71-3.54c0,0,14.84-21.91,26.4-16.96c2.31,0.99,4.45,2.9,6.33,5.53c2.53,3.5,4.62,8.26,6.12,13.77
					C381.19,262.25,381.85,276.3,378.92,289.3z"/>
				<path style="fill:#FFC55A;" d="M395.69,419.83l-19.25,0.69l-7.37-101.72l-3.34-46.04v-35.31h21.95
					c3.54,4.57,6.6,10.89,9.12,18.72c0.01,0,0.01,0,0.01,0C407.64,289.75,408.62,350.96,395.69,419.83z"/>
				<polygon style="fill:#F49947;" points="368.495,320.331 387.107,286.3 370.448,337.845 				"/>
				<path style="fill:#F49947;" d="M396.8,256.17c-0.3-0.15-6.86-3.25-18.62-4.95c-3.65-0.53-7.82-0.92-12.45-1.04
					c-7.76-0.22-16.85,0.33-27.11,2.24l0.71-3.54c0,0,14.84-21.91,26.4-16.96c2.31,0.99,4.45,2.9,6.33,5.53h15.62
					C391.22,242.02,394.28,248.34,396.8,256.17z"/>
				<path style="fill:#61648A;" d="M387.68,237.45l-48.35,11.43l-16.09-21.36c0,0-8.69,20.6-14.46,23.65
					c-5.77,3.04-42.23-1.91-42.23-1.91c-0.95-1.08-1.04-3.17-0.75-5.42h0.01c0.5-4.06,2.23-8.63,2.23-8.63l28.6-2.71
					c0,0,8.66-23.32,12.14-34.51c3.48-11.18,10.84-12.81,10.84-12.81s0.14-2.76-0.07-3.55c-0.22-0.8,11.69-9.62,19.78-9.62
					l1.88,1.71c0,0,7.62-3.31,17.52,3.55c5.21,3.6,12.94,20.03,19.1,34.82v0.01C383.39,225.45,387.68,237.45,387.68,237.45z"/>
				<path style="opacity:0.36;fill:#383952;" d="M387.68,237.45l-48.35,11.43l-16.09-21.36c0,0-8.69,20.6-14.46,23.65
					c-5.77,3.04-42.23-1.91-42.23-1.91c-0.95-1.08-1.04-3.17-0.75-5.42h0.01c10.11-4.61,35.28,6.82,41.54-1.24
					c6.26-8.07,12.87-30.8,15.9-24.41c3.02,6.38,9.22,16.03,16.88,17.68c7.65,1.65,39.16-6.45,37.7-23.77
					C383.39,225.45,387.68,237.45,387.68,237.45z"/>
			</g>
		</g>
	</g>
</g>
</svg>
