<?xml version="1.0" encoding="utf-8"?>
<!-- Generator: Adobe Illustrator 27.5.0, SVG Export Plug-In . SVG Version: 6.00 Build 0)  -->
<svg version="1.1" xmlns="http://www.w3.org/2000/svg" xmlns:xlink="http://www.w3.org/1999/xlink" x="0px" y="0px"
	 viewBox="0 0 500 500" style="enable-background:new 0 0 500 500;" xml:space="preserve">
<g id="BACKGROUND">
	<rect style="fill:#FFFFFF;" width="500" height="500"/>
</g>
<g id="OBJECTS">
	<g>
		<path style="fill:#CFEBFF;" d="M432.758,342.689c0,0,22.397-2.984,22.397-37.557c0-34.572-35.797-40.929-62.785-75.927
			c-26.988-34.998-27.504-115.483-82.122-147.017c-54.618-31.534-80.942,1.371-113.66,48.944
			c-32.718,47.573-45.271,61.602-83.501,86.552c-53.062,34.631-87.302,105.649-35.636,114.296
			c51.666,8.648,192.551,4.376,192.551,4.376L432.758,342.689z"/>
		<g>
			<path style="opacity:0.4;" d="M248.033,218.783c0,0-3.762-35.483,3.178-35.286c6.94,0.197,14.156,26.371,14.156,26.371
				s-1.078-42.879,8.842-42.715c9.92,0.164,12.238,34.424,12.238,34.424s4.185-17.529,12.686-14.68
				c8.501,2.848,13.245,37.684,13.245,37.684s0.577-15.048,8.842-12.559c13.802,4.156,16.203,58.566,16.203,58.566L248.033,218.783z
				"/>
			<linearGradient id="SVGID_1_" gradientUnits="userSpaceOnUse" x1="315.0841" y1="176.5262" x2="284.3541" y2="234.7514">
				<stop  offset="0" style="stop-color:#1CC967"/>
				<stop  offset="0.1691" style="stop-color:#1AC26F"/>
				<stop  offset="0.4343" style="stop-color:#15AD86"/>
				<stop  offset="0.7606" style="stop-color:#0C8CAA"/>
				<stop  offset="1" style="stop-color:#0470C9"/>
			</linearGradient>
			<path style="fill:url(#SVGID_1_);" d="M243.901,216.738c0,0-3.762-35.483,3.178-35.286s14.156,26.371,14.156,26.371
				s-1.078-42.879,8.842-42.715c9.92,0.164,12.238,34.424,12.238,34.424s4.185-17.529,12.686-14.681
				c8.501,2.848,13.245,37.684,13.245,37.684s0.577-15.048,8.842-12.559c13.802,4.156,16.203,58.566,16.203,58.566L243.901,216.738z
				"/>
			
				<line style="fill:none;stroke:#0B4D27;stroke-width:0.7261;stroke-linecap:round;stroke-linejoin:round;stroke-miterlimit:10;" x1="270.724" y1="173.779" x2="273.75" y2="234.036"/>
			
				<path style="fill:none;stroke:#0B4D27;stroke-width:0.7261;stroke-linecap:round;stroke-linejoin:round;stroke-miterlimit:10;" d="
				M267.597,179.073c0,0-0.035,6.989,4.08,13.684"/>
			
				<path style="fill:none;stroke:#0B4D27;stroke-width:0.7261;stroke-linecap:round;stroke-linejoin:round;stroke-miterlimit:10;" d="
				M278.488,193.413c0,0,0.526,14.244-5.721,21.032"/>
			
				<line style="fill:none;stroke:#0B4D27;stroke-width:0.7261;stroke-linecap:round;stroke-linejoin:round;stroke-miterlimit:10;" x1="293.583" y1="191.325" x2="288.087" y2="241.996"/>
			
				<path style="fill:none;stroke:#0B4D27;stroke-width:0.7261;stroke-linecap:round;stroke-linejoin:round;stroke-miterlimit:10;" d="
				M298.866,195.275c0,0-0.917,5.886-7.009,11.959"/>
			
				<path style="fill:none;stroke:#0B4D27;stroke-width:0.7261;stroke-linecap:round;stroke-linejoin:round;stroke-miterlimit:10;" d="
				M283.771,205.813c0,0-1.081,12.053,5.821,22.308"/>
			
				<line style="fill:none;stroke:#0B4D27;stroke-width:0.7261;stroke-linecap:round;stroke-linejoin:round;stroke-miterlimit:10;" x1="317.951" y1="216.66" x2="312.614" y2="256.558"/>
			
				<path style="fill:none;stroke:#0B4D27;stroke-width:0.7261;stroke-linecap:round;stroke-linejoin:round;stroke-miterlimit:10;" d="
				M313.96,216.66c0,0-0.637,3.279,2.702,9.64"/>
			
				<path style="fill:none;stroke:#0B4D27;stroke-width:0.7261;stroke-linecap:round;stroke-linejoin:round;stroke-miterlimit:10;" d="
				M323.774,229.858c0,0-1.556,10.64-9.619,15.186"/>
			
				<line style="fill:none;stroke:#0B4D27;stroke-width:0.7261;stroke-linecap:round;stroke-linejoin:round;stroke-miterlimit:10;" x1="248.728" y1="188.228" x2="252.084" y2="221.48"/>
			
				<path style="fill:none;stroke:#0B4D27;stroke-width:0.7261;stroke-linecap:round;stroke-linejoin:round;stroke-miterlimit:10;" d="
				M251.532,188.669c0,0,0.542,5.327-1.832,9.187"/>
			
				<path style="fill:none;stroke:#0B4D27;stroke-width:0.7261;stroke-linecap:round;stroke-linejoin:round;stroke-miterlimit:10;" d="
				M245.925,199.531c0,0-0.54,6.246,5.175,12.194"/>
		</g>
		<g>
			<g>
				<g>
					<path style="fill:#E6007E;" d="M56.553,300.066c0.581,1.992,1.499,3.647,2.706,4.945l-8.28,13.134l8.207,3.396l8.28-13.134
						c2.006,0.031,4.199-0.336,6.532-1.123v11.709l11.606-6.804v-11.708c2.332-1.949,4.526-4.152,6.532-6.536l8.28,3.426
						l8.207-13.018l-8.28-3.426c1.208-2.714,2.125-5.445,2.706-8.119l11.709-6.864v-11.606l-11.709,6.864
						c-0.581-1.992-1.499-3.647-2.706-4.945l8.28-13.134l-8.207-3.395l-8.28,13.134c-2.006-0.031-4.199,0.337-6.532,1.123v-11.708
						l-11.606,6.804v11.709c-2.332,1.948-4.525,4.152-6.532,6.536l-8.28-3.426l-8.207,13.018l8.28,3.426
						c-1.208,2.714-2.126,5.445-2.706,8.119l-11.709,6.864v11.606L56.553,300.066z M67.785,287.678
						c0-6.637,5.38-15.171,12.017-19.062c6.637-3.891,12.018-1.665,12.018,4.972c0,6.637-5.381,15.172-12.018,19.063
						C73.165,296.541,67.785,294.315,67.785,287.678z"/>
				</g>
			</g>
			<g>
				<g>
					<path style="fill:#E6007E;" d="M52.747,246.508c0.376,1.288,0.969,2.359,1.75,3.199l-5.355,8.495l5.308,2.196l5.355-8.495
						c1.298,0.02,2.716-0.217,4.225-0.726v7.573l7.507-4.401v-7.573c1.509-1.26,2.927-2.686,4.225-4.228l5.356,2.216l5.308-8.421
						l-5.355-2.216c0.781-1.756,1.375-3.522,1.75-5.251l7.574-4.44v-7.507l-7.574,4.44c-0.376-1.288-0.969-2.359-1.75-3.199
						l5.355-8.495l-5.308-2.196l-5.356,8.495c-1.298-0.02-2.716,0.218-4.225,0.726v-7.573l-7.507,4.401v7.573
						c-1.509,1.26-2.927,2.686-4.225,4.228l-5.355-2.216l-5.308,8.42l5.355,2.216c-0.781,1.756-1.375,3.522-1.75,5.251l-7.573,4.44
						v7.507L52.747,246.508z M60.012,238.495c0-4.293,3.48-9.813,7.773-12.33c4.293-2.517,7.773-1.077,7.773,3.216
						c0,4.293-3.48,9.813-7.773,12.33C63.492,244.228,60.012,242.788,60.012,238.495z"/>
				</g>
			</g>
		</g>
		<g>
			
				<linearGradient id="SVGID_00000101083990753752756940000008033579413122615459_" gradientUnits="userSpaceOnUse" x1="71.5242" y1="337.6909" x2="432.7579" y2="337.6909">
				<stop  offset="0" style="stop-color:#6DBAF2"/>
				<stop  offset="0.2428" style="stop-color:#6BB9F1"/>
				<stop  offset="0.3303" style="stop-color:#64B3ED"/>
				<stop  offset="0.3926" style="stop-color:#59ABE6"/>
				<stop  offset="0.443" style="stop-color:#489EDC"/>
				<stop  offset="0.4856" style="stop-color:#328DCF"/>
				<stop  offset="0.5188" style="stop-color:#1B7CC2"/>
				<stop  offset="0.5495" style="stop-color:#328DCF"/>
				<stop  offset="0.5891" style="stop-color:#489EDC"/>
				<stop  offset="0.6358" style="stop-color:#59ABE6"/>
				<stop  offset="0.6936" style="stop-color:#64B3ED"/>
				<stop  offset="0.7748" style="stop-color:#6BB9F1"/>
				<stop  offset="1" style="stop-color:#6DBAF2"/>
			</linearGradient>
			<path style="fill:url(#SVGID_00000101083990753752756940000008033579413122615459_);" d="M432.758,318.618l-35.38-0.97
				l-142.462-82.595c-7.061-4.094-15.77-4.103-22.84-0.025l-129.243,74.546l-31.308-0.858v24.07l0.022,0.001
				c0.112,2.674,1.476,5.302,4.121,6.835l173.78,100.709c7.062,4.092,15.772,4.1,22.841,0.021l156.313-90.206
				c2.856-1.648,4.229-4.572,4.14-7.457l0.016,0V318.618z"/>
			<path style="fill:#8FD0FF;" d="M75.667,314.826l173.78,100.709c7.062,4.092,15.772,4.1,22.841,0.021l156.313-90.206
				c5.535-3.194,5.543-11.181,0.014-14.386l-173.7-100.706c-7.061-4.094-15.771-4.103-22.84-0.025L75.682,300.438
				C70.145,303.632,70.137,311.621,75.667,314.826z"/>
			<g>
				<polygon style="fill:#CFEBFF;" points="385.398,297.751 372.753,302.751 362,311.259 349.356,316.259 338.612,324.762 
					325.966,329.763 315.217,338.269 302.574,343.268 291.825,351.775 279.18,356.775 268.434,365.279 255.792,370.278 
					245.044,378.783 232.402,383.782 221.66,392.284 214.329,395.183 215.155,395.662 221.987,392.961 232.729,384.459 
					245.372,379.46 256.12,370.955 268.761,365.956 279.507,357.452 292.152,352.452 302.901,343.945 315.544,338.946 
					326.293,330.44 338.939,325.439 349.683,316.935 362.328,311.935 373.081,303.427 385.725,298.427 394.719,291.311 
					394.037,290.916 				"/>
				<polygon style="fill:#CFEBFF;" points="262.668,389.444 273.417,380.939 286.058,375.94 296.804,367.436 309.449,362.436 
					320.198,353.929 332.841,348.93 343.59,340.424 356.236,335.423 366.98,326.92 379.625,321.92 390.378,313.412 403.022,308.412 
					411.983,301.321 411.301,300.925 402.695,307.735 390.05,312.735 379.297,321.243 366.653,326.243 355.909,334.747 
					343.263,339.748 332.514,348.254 319.871,353.253 309.122,361.759 296.477,366.759 285.731,375.263 273.089,380.262 
					262.341,388.767 249.699,393.766 238.957,402.268 231.585,405.183 232.412,405.663 239.284,402.945 250.026,394.443 				"/>
				<polygon style="fill:#CFEBFF;" points="77.105,315.659 83.612,313.087 94.355,304.584 106.997,299.585 117.745,291.08 
					130.387,286.081 141.133,277.576 153.777,272.577 164.526,264.07 177.171,259.071 187.918,250.565 200.564,245.565 
					211.309,237.061 223.954,232.061 234.706,223.553 247.35,218.552 256.6,211.234 255.918,210.839 247.023,217.876 
					234.378,222.876 223.626,231.384 210.982,236.384 200.237,244.888 187.591,249.888 176.843,258.394 164.199,263.394 
					153.45,271.9 140.806,276.9 130.06,285.404 117.417,290.403 106.669,298.908 94.028,303.907 83.285,312.41 76.278,315.18 				
					"/>
				<polygon style="fill:#CFEBFF;" points="368.101,287.766 355.457,292.766 344.704,301.274 332.059,306.274 321.315,314.778 
					308.669,319.779 297.921,328.285 285.277,333.284 274.528,341.791 261.883,346.791 251.137,355.295 238.496,360.294 
					227.748,368.798 215.105,373.797 204.363,382.299 197.072,385.182 197.899,385.662 204.69,382.976 215.432,374.474 
					228.075,369.475 238.823,360.97 251.464,355.971 262.21,347.467 274.855,342.467 285.604,333.961 298.248,328.962 
					308.997,320.456 321.642,315.455 332.386,306.951 345.031,301.951 355.784,293.443 368.428,288.443 377.455,281.302 
					376.772,280.906 				"/>
				<path style="fill:#CFEBFF;" d="M428.616,310.964l-0.05-0.029l-8.574,6.784l-12.645,5l-10.753,8.508l-12.645,5l-10.745,8.504
					l-12.645,5.001l-10.749,8.506l-12.644,4.999l-10.749,8.507l-12.645,5l-10.746,8.504l-12.642,4.999l-10.748,8.505l-12.642,4.999
					l-10.742,8.502l-7.412,2.931l0.606,0.351c0.076,0.044,0.155,0.081,0.231,0.124l6.902-2.729l10.742-8.502l12.643-4.999
					l10.748-8.505l12.642-4.999l10.746-8.504l12.645-5l10.749-8.507l12.643-4.999l10.749-8.506l12.645-5.001l10.745-8.504l12.645-5
					l10.753-8.508l12.645-5l8.889-7.034C429.013,311.228,428.827,311.086,428.616,310.964z"/>
				<polygon style="fill:#CFEBFF;" points="281.617,237.844 268.972,242.845 258.22,251.353 245.576,256.353 234.831,264.856 
					222.185,269.857 211.437,278.362 198.792,283.363 188.043,291.869 175.4,296.869 164.654,305.373 152.011,310.372 
					141.263,318.877 128.622,323.876 117.878,332.379 110.791,335.181 111.618,335.66 118.206,333.055 128.949,324.552 
					141.59,319.553 152.338,311.048 164.981,306.049 175.727,297.546 188.371,292.546 199.12,284.04 211.764,279.039 
					222.512,270.534 235.158,265.533 245.903,257.03 258.547,252.029 269.299,243.522 281.944,238.521 291.13,231.254 
					290.447,230.858 				"/>
				<polygon style="fill:#CFEBFF;" points="350.804,277.782 338.16,282.782 327.408,291.29 314.763,296.29 304.018,304.794 
					291.373,309.795 280.624,318.301 267.98,323.299 257.231,331.806 244.587,336.806 233.841,345.31 221.199,350.309 
					210.451,358.814 197.808,363.813 187.066,372.315 179.816,375.182 180.643,375.661 187.393,372.992 198.135,364.49 
					210.778,359.491 221.526,350.986 234.168,345.987 244.915,337.483 257.558,332.483 268.307,323.976 280.951,318.977 
					291.7,310.471 304.345,305.47 315.09,296.966 327.735,291.966 338.487,283.459 351.131,278.459 360.189,271.292 
					359.507,270.897 				"/>
				<polygon style="fill:#CFEBFF;" points="264.32,227.86 251.675,232.861 240.923,241.368 228.279,246.368 217.534,254.872 
					204.888,259.873 194.14,268.378 181.496,273.378 170.747,281.884 158.103,286.884 147.357,295.388 134.714,300.387 
					123.966,308.892 111.325,313.891 100.582,322.394 93.535,325.18 94.361,325.659 100.909,323.071 111.652,314.568 
					124.293,309.569 135.042,301.064 147.684,296.065 158.43,287.561 171.074,282.561 181.823,274.055 194.467,269.055 
					205.215,260.549 217.861,255.549 228.606,247.045 241.25,242.045 252.002,233.537 264.647,228.537 273.865,221.244 
					273.183,220.848 				"/>
				<polygon style="fill:#CFEBFF;" points="298.914,247.829 286.269,252.829 275.517,261.337 262.873,266.337 252.127,274.841 
					239.482,279.841 228.734,288.347 216.089,293.347 205.34,301.853 192.697,306.853 181.951,315.357 169.308,320.356 
					158.56,328.861 145.918,333.86 135.175,342.363 128.047,345.181 128.874,345.66 135.503,343.04 146.246,334.537 
					158.887,329.538 169.635,321.033 182.278,316.034 193.024,307.53 205.667,302.53 216.417,294.024 229.061,289.024 
					239.809,280.518 252.455,275.517 263.2,267.014 275.844,262.013 286.596,253.506 299.241,248.505 308.395,241.263 
					307.712,240.868 				"/>
				<polygon style="fill:#CFEBFF;" points="333.507,267.797 320.863,272.798 310.111,281.305 297.466,286.305 286.721,294.809 
					274.076,299.81 263.327,308.316 250.683,313.315 239.934,321.822 227.291,326.822 216.544,335.326 203.902,340.325 
					193.154,348.83 180.511,353.829 169.769,362.331 162.56,365.182 163.386,365.661 170.096,363.008 180.838,354.505 
					193.481,349.507 204.229,341.002 216.872,336.003 227.618,327.499 240.261,322.499 251.01,313.992 263.654,308.993 
					274.403,300.487 287.048,295.486 297.793,286.982 310.438,281.982 321.19,273.475 333.835,268.474 342.925,261.283 
					342.242,260.887 				"/>
				<polygon style="fill:#CFEBFF;" points="316.21,257.813 303.566,262.814 292.814,271.321 280.169,276.321 269.424,284.825 
					256.779,289.826 246.03,298.332 233.386,303.331 222.637,311.838 209.994,316.838 199.248,325.341 186.605,330.341 
					175.857,338.845 163.215,343.844 152.472,352.346 145.303,355.181 146.13,355.66 152.799,353.023 163.542,344.521 
					176.184,339.522 186.932,331.017 199.575,326.018 210.321,317.514 222.964,312.514 233.713,304.008 246.357,299.009 
					257.106,290.503 269.751,285.502 280.497,276.998 293.141,271.998 303.893,263.49 316.538,258.49 325.66,251.273 
					324.977,250.877 				"/>
			</g>
		</g>
		<g>
			<path style="fill:#020F70;" d="M239.063,59.292l-3.819-2.244c-0.056-0.037-0.115-0.069-0.174-0.102l-0.069-0.04L235,56.909
				c-1.056-0.545-2.57-0.398-4.258,0.578L80.467,144.408c-3.188,1.844-5.773,5.924-5.773,9.112v131.915
				c0,1.588,0.642,2.654,1.679,3.098l0,0l3.775,2.207l0.773-3.135l149.82-86.658c3.188-1.844,5.773-5.924,5.773-9.112V61.961
				l1.99,0.221L239.063,59.292z"/>
			<path style="fill:#020F70;" d="M212.549,291.814c0.001-0.023,0.001-0.046,0-0.069v-2.855h-4.09l-29.095-16.672
				c-3.952-2.265-5.994-6.82-5.053-11.277l9.768-46.29l-47.208,27.484l-9.768,46.291c-0.94,4.457,1.1,9.012,5.052,11.277
				l31.763,18.205c1.447,0.829,3.226,0.824,4.667-0.015l43.5-25.297C212.387,292.42,212.539,292.119,212.549,291.814
				L212.549,291.814L212.549,291.814z"/>
			
				<linearGradient id="SVGID_00000000910216405642708880000016068893024776351878_" gradientUnits="userSpaceOnUse" x1="147.4207" y1="235.8045" x2="187.7665" y2="301.1534">
				<stop  offset="0" style="stop-color:#2E45E8"/>
				<stop  offset="0.2538" style="stop-color:#2E44E6"/>
				<stop  offset="0.3451" style="stop-color:#2C42DF"/>
				<stop  offset="0.4103" style="stop-color:#2A3FD4"/>
				<stop  offset="0.4626" style="stop-color:#263AC3"/>
				<stop  offset="0.5072" style="stop-color:#2134AD"/>
				<stop  offset="0.5109" style="stop-color:#2133AB"/>
				<stop  offset="0.5144" style="stop-color:#2134AD"/>
				<stop  offset="0.5571" style="stop-color:#263AC3"/>
				<stop  offset="0.6072" style="stop-color:#2A3FD4"/>
				<stop  offset="0.6696" style="stop-color:#2C42DF"/>
				<stop  offset="0.7571" style="stop-color:#2E44E6"/>
				<stop  offset="1" style="stop-color:#2E45E8"/>
			</linearGradient>
			<path style="fill:url(#SVGID_00000000910216405642708880000016068893024776351878_);" d="M176.717,260.801l10.016-47.464
				l-47.208,27.484l-10.016,47.465c-0.793,3.757,0.928,7.596,4.259,9.505l30.151,17.275c1.447,0.829,3.225,0.823,4.666-0.015
				l43.5-25.297c0.626-0.364,0.624-1.27-0.005-1.63l-31.104-17.816C177.645,268.398,175.924,264.558,176.717,260.801z"/>
			
				<linearGradient id="SVGID_00000080915393737563063820000011897684799929375388_" gradientUnits="userSpaceOnUse" x1="158.0023" y1="247.3195" x2="163.969" y2="274.5956">
				<stop  offset="0" style="stop-color:#000000"/>
				<stop  offset="0.9936" style="stop-color:#000000;stop-opacity:0.0064"/>
				<stop  offset="1" style="stop-color:#000000;stop-opacity:0"/>
			</linearGradient>
			<polygon style="fill:url(#SVGID_00000080915393737563063820000011897684799929375388_);" points="130.574,271.978 
				132.549,273.159 181.74,236.996 185.092,221.111 135.23,249.909 			"/>
			<path style="fill:#2E45E8;" d="M84.219,290.066l150.274-86.921c3.188-1.844,5.773-5.924,5.773-9.112V62.118
				c0-3.188-2.585-4.278-5.773-2.434L84.219,146.605c-3.188,1.844-5.773,5.924-5.773,9.112v131.915
				C78.446,290.821,81.03,291.911,84.219,290.066z"/>
			<path style="fill:#FFFFFF;" d="M84.516,275.391l149.68-86.577c1.576-0.912,2.854-2.929,2.854-4.505V64.039
				c0-1.576-1.278-2.115-2.854-1.203l-149.68,86.577c-1.576,0.912-2.854,2.929-2.854,4.505v120.27
				C81.661,275.764,82.939,276.303,84.516,275.391z"/>
			<path style="fill:#F8B525;" d="M234.196,62.835l-149.68,86.577c-1.576,0.912-2.854,2.929-2.854,4.505v8.869L237.05,72.908v-8.869
				C237.05,62.462,235.772,61.924,234.196,62.835z"/>
			<g>
				
					<path style="fill:none;stroke:#FFFFFF;stroke-width:0.3908;stroke-linecap:round;stroke-linejoin:round;stroke-miterlimit:10;" d="
					M92.685,150.549c0,1.292-1.047,2.945-2.339,3.692s-2.339,0.306-2.339-0.986c0-1.292,1.047-2.945,2.339-3.693
					S92.685,149.257,92.685,150.549z"/>
				
					<polygon style="fill:none;stroke:#FFFFFF;stroke-width:0.3908;stroke-linecap:round;stroke-linejoin:round;stroke-miterlimit:10;" points="
					100.896,148.139 96.217,150.846 96.217,146.167 100.896,143.46 				"/>
				<g>
					
						<line style="fill:none;stroke:#FFFFFF;stroke-width:0.4479;stroke-linecap:round;stroke-linejoin:round;stroke-miterlimit:10;" x1="104.427" y1="141.418" x2="109.427" y2="143.204"/>
					
						<line style="fill:none;stroke:#FFFFFF;stroke-width:0.4479;stroke-linecap:round;stroke-linejoin:round;stroke-miterlimit:10;" x1="109.427" y1="138.526" x2="104.427" y2="146.096"/>
				</g>
			</g>
		</g>
		<g>
			
				<linearGradient id="SVGID_00000084517136416433697090000016559822277706550148_" gradientUnits="userSpaceOnUse" x1="160.3358" y1="321.0711" x2="160.3358" y2="328.5313">
				<stop  offset="0.0509" style="stop-color:#000000"/>
				<stop  offset="1" style="stop-color:#000000;stop-opacity:0"/>
			</linearGradient>
			<path style="opacity:0.78;fill:url(#SVGID_00000084517136416433697090000016559822277706550148_);" d="M161.967,330.704h-3.262
				v-7.114c0-0.901,0.73-1.631,1.631-1.631l0,0c0.901,0,1.631,0.73,1.631,1.631V330.704z"/>
			
				<linearGradient id="SVGID_00000039128385315550103630000003278597730615285160_" gradientUnits="userSpaceOnUse" x1="213.5306" y1="348.9148" x2="213.5306" y2="356.3751">
				<stop  offset="0.0509" style="stop-color:#000000"/>
				<stop  offset="1" style="stop-color:#000000;stop-opacity:0"/>
			</linearGradient>
			<path style="opacity:0.78;fill:url(#SVGID_00000039128385315550103630000003278597730615285160_);" d="M215.161,358.547H211.9
				v-7.114c0-0.901,0.73-1.631,1.631-1.631l0,0c0.901,0,1.631,0.73,1.631,1.631V358.547z"/>
			
				<linearGradient id="SVGID_00000145755246614487674660000009010133680641725090_" gradientUnits="userSpaceOnUse" x1="239.6825" y1="333.8524" x2="239.6825" y2="341.3127">
				<stop  offset="0.0509" style="stop-color:#000000"/>
				<stop  offset="1" style="stop-color:#000000;stop-opacity:0"/>
			</linearGradient>
			<path style="opacity:0.78;fill:url(#SVGID_00000145755246614487674660000009010133680641725090_);" d="M241.313,343.485h-3.262
				v-7.114c0-0.901,0.73-1.631,1.631-1.631l0,0c0.901,0,1.631,0.73,1.631,1.631V343.485z"/>
			
				<linearGradient id="SVGID_00000168103201028226311150000015583501684236198279_" gradientUnits="userSpaceOnUse" x1="252.0542" y1="363.5801" x2="252.0542" y2="371.0403" gradientTransform="matrix(1 0 -0.3947 1 131.9242 0.0511)">
				<stop  offset="0.0509" style="stop-color:#000000"/>
				<stop  offset="1" style="stop-color:#000000;stop-opacity:0"/>
			</linearGradient>
			<path style="opacity:0.78;fill:url(#SVGID_00000168103201028226311150000015583501684236198279_);" d="M238.302,373.264h-3.261
				l2.808-7.114c0.355-0.901,1.374-1.631,2.274-1.631l0,0c0.901,0,1.343,0.73,0.987,1.631L238.302,373.264z"/>
			
				<linearGradient id="SVGID_00000131330497219419981820000015286657336143441807_" gradientUnits="userSpaceOnUse" x1="271.5241" y1="348.0096" x2="271.5241" y2="355.4698" gradientTransform="matrix(1 0 -0.3947 1 131.9242 0.0511)">
				<stop  offset="0.0509" style="stop-color:#000000"/>
				<stop  offset="1" style="stop-color:#000000;stop-opacity:0"/>
			</linearGradient>
			<path style="opacity:0.78;fill:url(#SVGID_00000131330497219419981820000015286657336143441807_);" d="M263.918,357.693h-3.262
				l2.808-7.113c0.355-0.901,1.374-1.631,2.274-1.631l0,0c0.901,0,1.343,0.73,0.987,1.631L263.918,357.693z"/>
			<g>
				<path style="fill:#010838;" d="M160.336,322.98L160.336,322.98c-0.94,0-1.703-0.762-1.703-1.703v-40.592
					c0-0.94,0.762-1.703,1.703-1.703l0,0c0.941,0,1.703,0.762,1.703,1.703v40.592C162.039,322.218,161.276,322.98,160.336,322.98z"
					/>
				<path style="fill:#010838;" d="M189.814,339.727L189.814,339.727c-0.94,0-1.703-0.762-1.703-1.703v-40.592
					c0-0.94,0.763-1.703,1.703-1.703l0,0c0.94,0,1.703,0.762,1.703,1.703v40.592C191.516,338.965,190.754,339.727,189.814,339.727z"
					/>
			</g>
			<g>
				<polygon style="fill:#010838;" points="155.902,280.516 189.712,300.048 245.352,267.979 245.352,265.197 211.676,248.649 
					155.902,277.734 				"/>
				<polygon style="fill:#2E45E8;" points="155.902,277.734 189.712,297.266 245.352,265.197 211.676,245.867 				"/>
			</g>
			<path style="opacity:0.53;" d="M219.813,264.161c-0.004-0.005-0.008-0.01-0.012-0.015c-0.071-0.083-0.151-0.159-0.251-0.217
				l-10.652-6.15c-0.462-0.267-1.21-0.268-1.671,0l-18.355,10.667c-0.775,0.45-0.602,1.322-0.08,1.663
				c0.004,0.003,0.007,0.005,0.011,0.008c0.006,0.004,0.011,0.008,0.016,0.011l0-0.001c0.019,0.012,0.037,0.025,0.058,0.037
				l10.652,6.15c0.462,0.267,1.21,0.268,1.671,0l18.355-10.667c0.037-0.021,0.07-0.044,0.101-0.068
				c0.017-0.013,0.034-0.026,0.05-0.039c0,0,0,0,0.001,0C220.147,265.171,220.14,264.558,219.813,264.161z"/>
			<path style="opacity:0.53;" d="M213.23,257.351c0,0,0.747,2.261,3.996,2.064l9.5,8.833l2.609-5.83l-12.552-4.839L213.23,257.351z
				"/>
			<path style="opacity:0.53;" d="M186.804,274.247c0,0,0.282,1.559,1.084,1.434c0.394,1.701,2.908,3.571,2.908,3.571l7.517,14.625
				l7.426-4.28l-16.405-16.689L186.804,274.247z"/>
			<g>
				<path style="fill:#5267FF;" d="M219.55,263.178c0,0-0.098,0.295-0.184,0.645l-10.468-6.044c-0.462-0.267-1.21-0.268-1.671,0
					l-17.952,10.433l-0.403-0.517c-0.775,0.45-0.602,1.322-0.08,1.663c0.004,0.003,0.007,0.005,0.011,0.008
					c0.006,0.004,0.011,0.008,0.016,0.011l0-0.001c0.019,0.012,0.037,0.025,0.058,0.037l10.652,6.15c0.462,0.267,1.21,0.268,1.671,0
					l18.355-10.667c0.037-0.022,0.07-0.044,0.101-0.068c0.017-0.013,0.034-0.026,0.05-0.039c0,0,0,0,0.001,0
					C220.246,264.338,220.123,263.514,219.55,263.178z"/>
				<g>
					<path style="fill:#8FD0FF;" d="M189.57,268.539c-0.314-0.181-0.316-0.474-0.004-0.656l2.915-1.694l11.306,6.527l-2.915,1.694
						c-0.312,0.181-0.818,0.181-1.132,0L189.57,268.539 M192.481,266.19l14.998-8.716c0.283-0.164,0.742-0.164,1.026,0l10.276,5.933
						c0.285,0.164,0.286,0.43,0.003,0.595l-14.998,8.716L192.481,266.19 M219.55,263.178l-10.652-6.15
						c-0.462-0.267-1.21-0.268-1.671,0l-18.355,10.667c-0.461,0.268-0.457,0.701,0.005,0.968l10.652,6.15
						c0.462,0.267,1.21,0.268,1.671,0l18.355-10.667C220.016,263.878,220.012,263.445,219.55,263.178z"/>
					<path style="fill:#5267FF;" d="M195.361,271.065c-0.575-0.332-0.578-0.87-0.007-1.202c0.569-0.331,1.498-0.331,2.073,0.001
						c0.573,0.331,0.576,0.869,0.007,1.2C196.862,271.396,195.934,271.396,195.361,271.065 M190.796,268.762l2.641-1.535
						l0.091,0.053l-2.641,1.535L190.796,268.762 M192.564,269.782l2.641-1.535l0.091,0.053l-2.641,1.535L192.564,269.782
						 M197.493,272.629l2.641-1.535l0.091,0.053l-2.641,1.535L197.493,272.629 M199.261,273.649l2.641-1.535l0.091,0.053
						l-2.641,1.535L199.261,273.649 M203.787,272.717l-11.306-6.527l-2.915,1.694c-0.312,0.181-0.31,0.474,0.004,0.656l10.17,5.872
						c0.314,0.181,0.82,0.181,1.132,0L203.787,272.717"/>
					<path style="fill:#2E45E8;" d="M197.427,269.865c-0.575-0.332-1.503-0.332-2.073-0.001c-0.571,0.332-0.568,0.87,0.007,1.202
						c0.573,0.331,1.502,0.331,2.073-0.001C198.003,270.733,198,270.195,197.427,269.865"/>
					<polyline style="fill:#2E45E8;" points="193.529,267.28 193.437,267.227 190.796,268.762 190.887,268.815 193.529,267.28 					
						"/>
					<polyline style="fill:#2E45E8;" points="195.296,268.3 195.205,268.247 192.564,269.782 192.655,269.835 195.296,268.3 					
						"/>
					<polyline style="fill:#2E45E8;" points="200.226,271.146 200.134,271.094 197.493,272.629 197.585,272.681 200.226,271.146 
											"/>
					<polyline style="fill:#2E45E8;" points="201.993,272.167 201.902,272.114 199.261,273.649 199.352,273.702 201.993,272.167 
											"/>
					<path style="fill:#FFFFFF;" d="M218.781,263.407l-10.276-5.933c-0.285-0.164-0.743-0.164-1.026,0l-14.998,8.716l11.306,6.527
						l14.998-8.716C219.068,263.837,219.066,263.571,218.781,263.407"/>
				</g>
			</g>
			<path style="fill:#F78080;" d="M231.91,260.141l-13.79-3.268c0,0-2.455-1.162-3.894-0.971c-0.994,0.132-1.634,1.45,0.018,2.375
				c0.598,0.335,3.198,0.396,3.198,0.396l10.539,6.68L231.91,260.141z"/>
			<polygon style="fill:none;stroke:#1E1EC8;stroke-width:0.6397;stroke-miterlimit:10;" points="213.531,296.005 228.038,283.569 
				229.303,298.608 			"/>
			<path style="fill:#0E198F;" d="M228.744,336.931c0,0,0.953,2.726,0.206,3.976c-0.746,1.25-2.942,0.187-5.232-0.483
				c-2.29-0.67-5.37-2.096-5.097-2.561c0.272-0.465,7.087-1.212,7.087-1.212L228.744,336.931z"/>
			<path style="fill:#F87800;" d="M220.648,309.94l3.938,27.527c0,0,0.969,1.73,3.082,0.36l1.203-0.474l1.485-25.585L220.648,309.94
				z"/>
			<path style="opacity:0.37;" d="M220.648,309.94l3.938,27.527c0,0,0.969,1.73,3.082,0.36l1.203-0.474l1.485-25.585L220.648,309.94
				z"/>
			<g>
				<path style="fill:#010838;" d="M213.413,351.044L213.413,351.044c-0.846,0-1.531-0.685-1.531-1.531v-31.248
					c0-0.845,0.685-1.531,1.531-1.531l0,0c0.846,0,1.531,0.685,1.531,1.531v31.248C214.944,350.359,214.258,351.044,213.413,351.044
					z"/>
				<path style="fill:#010838;" d="M239.877,365.516L239.877,365.516c-0.84,0.097-1.599-0.506-1.696-1.346l-4.087-33.373
					c-0.097-0.84,0.506-1.599,1.346-1.696l0,0c0.84-0.097,1.599,0.506,1.696,1.346l4.087,33.373
					C241.319,364.66,240.717,365.419,239.877,365.516z"/>
			</g>
			<g>
				<path style="fill:#010838;" d="M239.682,335.686L239.682,335.686c-0.845,0-1.531-0.685-1.531-1.531v-31.248
					c0-0.845,0.685-1.531,1.531-1.531l0,0c0.846,0,1.531,0.686,1.531,1.531v31.248C241.213,335.001,240.528,335.686,239.682,335.686
					z"/>
				<path style="fill:#010838;" d="M266.146,350.158L266.146,350.158c-0.84,0.097-1.599-0.506-1.696-1.346l-4.087-33.373
					c-0.097-0.84,0.506-1.599,1.346-1.696l0,0c0.84-0.097,1.599,0.506,1.696,1.346l4.087,33.373
					C267.589,349.302,266.986,350.061,266.146,350.158z"/>
			</g>
			<path style="fill:#2E45E8;" d="M211.258,314.697l25.092-14.612c0.659-0.384,1.468-0.406,2.146-0.058l13.777,7.056l-10.116,23.06
				l-9.451-0.443L211.258,314.697z"/>
			<path style="fill:#0E198F;" d="M190.752,338.295c0,0,0.313,3.46-0.48,4.054c-0.793,0.594-4.051-1.103-4.87-1.489
				c-2.211-1.044-5.349-3.797-4.423-4.745c1.209-1.238,7.323,1.099,7.323,1.099L190.752,338.295z"/>
			<path style="fill:#F87800;" d="M229.293,296.12c0,0-24.142-6.747-29.13-1.687c-5.9,5.985-14.672,42.218-14.672,42.218
				s0.772,3.661,5.369,2.055l17.998-29.722c0,0,28.028,15.405,35.681,11.408c7.653-3.998,10.454-19.132,10.111-23.243
				C254.306,293.036,229.293,296.12,229.293,296.12z"/>
			<path style="fill:#F78080;" d="M227.294,283.042c0,0-4.683,12.735-13.592,11.65c-8.909-1.085-22.273-17.19-22.273-17.19
				s-3.027-1.142-3.312-3.255c0,0-1.256,0.742-1.313,0c-0.057-0.743,1.313-1.827,2.684-1.999c1.371-0.171,2.627-0.057,3.141,0.343
				c0,0-0.229-0.971,0-0.799c0.228,0.171,1.256,4.089,1.256,4.089l17.831,6.937l4.574-6.645L227.294,283.042z"/>
			
				<linearGradient id="SVGID_00000000943219277267183210000016396087395544500610_" gradientUnits="userSpaceOnUse" x1="212.7804" y1="280.671" x2="227.2939" y2="280.671">
				<stop  offset="0.1105" style="stop-color:#E25344"/>
				<stop  offset="1" style="stop-color:#E25344;stop-opacity:0"/>
			</linearGradient>
			<path style="fill:url(#SVGID_00000000943219277267183210000016396087395544500610_);" d="M212.78,281.27
				c3.402,2.538,10.916,3.597,13.565,3.9c0.628-1.26,0.949-2.128,0.949-2.128l-11.004-6.87L212.78,281.27z"/>
			<path style="fill:#F78080;" d="M233.337,235.266c0,0-1.783,8.45-0.663,9.482c1.12,1.032,3.808,0.529,3.808,0.529l0.396,7.079
				c0,0,4.463-0.099,7.04-3.293l-2.247-5.457l-1.788-7.19L233.337,235.266z"/>
			<path style="fill:#010838;" d="M228.722,254.087c3.861-1.868,17.133-7.995,20.788-7.767c3.655,0.229,6.511,4.569,7.31,12.221
				c0.799,7.653,0.228,29.126,0,33.352c-0.229,4.226-2.17,12.221-8.681,13.249c-6.51,1.028-16.561-0.457-20.902-6.054
				c-4.34-5.597-0.658-6.853-0.658-6.853s-1.398-14.848-2.198-20.331C223.582,266.423,221.64,257.514,228.722,254.087z"/>
			<path style="opacity:0.68;" d="M234.998,269.474l-10.221,5.47c0.794,6.587,1.802,17.292,1.802,17.292s-3.683,1.256,0.658,6.853
				c2.61,3.366,7.286,5.236,12.015,5.975C229.017,296.753,234.998,269.474,234.998,269.474z"/>
			<path style="opacity:0.3;" d="M242.193,244.875L242.193,244.875l-0.522-1.269l-0.127-0.511c-0.221-0.052-0.389-0.068-0.389-0.068
				l-2.989,1.289c0,0-3.378,0.989-5.207,0.64l0,0c1.233,0.747,3.522,0.32,3.522,0.32l0.191,3.415
				C238.601,247.567,241.323,245.885,242.193,244.875z"/>
			<path style="fill:#5267FF;" d="M272.997,270.261l-3.652-2.187c-0.238-0.142-0.534-0.145-0.774-0.006l-26.042,15.046
				c-1.025,0.592-1.706,1.639-1.829,2.817l-2.618,25.101l-18.849-10.701c-0.921-0.523-2.041-0.486-2.923,0.1
				c-0.883,0.585-1.355,1.601-1.233,2.652l1.645,14.142l-4.324-2.408c-0.976-0.543-2.177,0.162-2.177,1.28
				c0,0.842,0.449,1.621,1.179,2.042l23.809,13.747c2.538,1.465,5.705,1.282,8.057-0.467l21.751-16.175l8.091-43.136
				L272.997,270.261z M234.064,326.88l-15.061-8.387l-1.839-15.653c-0.044-0.383,0.199-0.588,0.307-0.658
				c0.107-0.07,0.392-0.213,0.725-0.026l19.649,11.155l-1.28,12.269C236.44,326.785,235.123,327.47,234.064,326.88z"/>
			<path style="fill:#2E45E8;" d="M272.163,270.267l-26.015,15.02c-1.072,0.619-1.783,1.714-1.913,2.945l-4.212,40.063
				c-0.209,1.987-2.733,4.791-5.366,3.271c-0.097-0.056-0.158-0.079-0.231-0.113c0.468,0.299,4.763,2.922,8.559,0.772l23.969-13.839
				c1.01-0.583,1.68-1.614,1.801-2.774l4.68-44.517C273.51,270.401,272.766,269.918,272.163,270.267z"/>
			<path style="fill:#010838;" d="M226.766,255.355c-4.52,3.911-14.714,26.718-14.714,26.718l-13.344-4.317
				c0,0-2.649,1.073-2.551,5.813c0,0,9.445,12.552,17.373,12.436c7.928-0.116,13.841-6.318,16.826-13.997
				C233.341,274.329,241.666,260.664,226.766,255.355z"/>
			<g>
				
					<linearGradient id="SVGID_00000005978039510663079710000009869580357167201938_" gradientUnits="userSpaceOnUse" x1="228.856" y1="330.2525" x2="229.5086" y2="330.2525" gradientTransform="matrix(0.9617 0.2742 -0.2742 0.9617 87.9817 -129.8227)">
					<stop  offset="0" style="stop-color:#1CC967"/>
					<stop  offset="0.1691" style="stop-color:#1AC26F"/>
					<stop  offset="0.4343" style="stop-color:#15AD86"/>
					<stop  offset="0.7606" style="stop-color:#0C8CAA"/>
					<stop  offset="1" style="stop-color:#0470C9"/>
				</linearGradient>
				<path style="fill:url(#SVGID_00000005978039510663079710000009869580357167201938_);" d="M217.98,251.04l-0.534-0.257
					l0.164-0.341c0.071-0.147,0.248-0.21,0.395-0.139l0,0c0.147,0.071,0.21,0.248,0.139,0.395L217.98,251.04z"/>
				
					<linearGradient id="SVGID_00000013906133817439080060000017621441066708775829_" gradientUnits="userSpaceOnUse" x1="227.4455" y1="336.1021" x2="228.9017" y2="336.3412" gradientTransform="matrix(0.9617 0.2742 -0.2742 0.9617 87.9817 -129.8227)">
					<stop  offset="0" style="stop-color:#010838"/>
					<stop  offset="0.1249" style="stop-color:#1D297D"/>
					<stop  offset="0.2399" style="stop-color:#3444B5"/>
					<stop  offset="0.338" style="stop-color:#4457DD"/>
					<stop  offset="0.4154" style="stop-color:#4E63F6"/>
					<stop  offset="0.4625" style="stop-color:#5267FF"/>
					<stop  offset="0.5198" style="stop-color:#4F64F9"/>
					<stop  offset="0.5995" style="stop-color:#485BE7"/>
					<stop  offset="0.6924" style="stop-color:#3C4DC9"/>
					<stop  offset="0.7953" style="stop-color:#2B39A0"/>
					<stop  offset="0.9049" style="stop-color:#16216B"/>
					<stop  offset="1" style="stop-color:#010838"/>
				</linearGradient>
				<path style="fill:url(#SVGID_00000013906133817439080060000017621441066708775829_);" d="M213.772,260.327l0.609-1.534
					l3.769-7.839c0.021-0.043,0.003-0.094-0.04-0.115l-0.589-0.283c-0.043-0.021-0.094-0.003-0.115,0.04l-3.769,7.839l-0.817,1.434
					c-0.083,0.145-0.129,0.309-0.134,0.476l-0.029,0.92l-0.058,0.12c-0.017,0.035-0.002,0.077,0.033,0.094l0,0
					c0.035,0.017,0.077,0.002,0.094-0.033l0.058-0.12l0.7-0.597C213.611,260.621,213.71,260.482,213.772,260.327z"/>
				<path style="fill:#010838;" d="M212.657,261.265l-0.058,0.12c-0.017,0.035-0.002,0.077,0.033,0.094l0,0
					c0.035,0.017,0.077,0.002,0.094-0.033l0.058-0.12C212.784,261.326,212.726,261.342,212.657,261.265z"/>
				
					<linearGradient id="SVGID_00000153680061459249020270000018058911034571115923_" gradientUnits="userSpaceOnUse" x1="226.9414" y1="339.3431" x2="228.2342" y2="339.3431" gradientTransform="matrix(0.9617 0.2742 -0.2742 0.9617 87.9817 -129.8227)">
					<stop  offset="0" style="stop-color:#1CC967"/>
					<stop  offset="0.1691" style="stop-color:#1AC26F"/>
					<stop  offset="0.4343" style="stop-color:#15AD86"/>
					<stop  offset="0.7606" style="stop-color:#0C8CAA"/>
					<stop  offset="1" style="stop-color:#0470C9"/>
				</linearGradient>
				<path style="fill:url(#SVGID_00000153680061459249020270000018058911034571115923_);" d="M213.839,260.16l0.543-1.367
					l0.329-0.684c-0.234-0.147-0.484-0.267-0.744-0.358l-0.329,0.684l-0.728,1.278C213.238,259.818,213.551,259.968,213.839,260.16z
					"/>
			</g>
			<path style="fill:#F78080;" d="M215.494,256.481c-0.249,0.312-1.506-0.008-1.684,0.226c-0.178,0.234,0.161,0.647,1.684,0.644
				c1.523-0.004,2.027,0.513,2.027,0.513L215.494,256.481z"/>
			<path style="opacity:0.37;" d="M193.278,309.383c-4.159,12.288-7.787,27.268-7.787,27.268s0.773,3.661,5.369,2.055l17.998-29.722
				C208.857,308.984,200.229,313.603,193.278,309.383z"/>
			<path style="fill:#010838;" d="M245.627,236.357c-0.458-1.65-1.709-1.512-1.709-1.512s-0.079-2.154-1.362-2.887
				c-1.283-0.733-3.116-0.326-3.116-0.326s-1.042-1.999-2.83-2.228c-1.787-0.229-2.945,1.225-2.945,1.225s-2.793-1.655-4.035,1.623
				c-0.623,1.645,0.587,4.107,3.008,3.594c0,0,0.344,0.911,2.605,0.636c0.082,1.036,0.249,1.973,0.462,2.838
				c0.222-0.583,0.591-1.296,1.026-1.104c1.106,0.488,1.215,3.559-0.167,3.569c0.795,1.683,1.828,2.789,2.85,3.181
				c0.91,0.348,2.068-0.869,2.514-0.732c1.131-1.185,1.989-5.081,1.989-5.081S246.085,238.007,245.627,236.357z"/>
		</g>
		<g>
			<g style="opacity:0.25;">
				
					<linearGradient id="SVGID_00000152227779643641697970000008955527798466528649_" gradientUnits="userSpaceOnUse" x1="88.0066" y1="208.7931" x2="106.8786" y2="208.7931">
					<stop  offset="0.2851" style="stop-color:#000000"/>
					<stop  offset="1" style="stop-color:#000000;stop-opacity:0"/>
				</linearGradient>
				<path style="fill:url(#SVGID_00000152227779643641697970000008955527798466528649_);" d="M105.568,252.37l-15.624,9.017
					c-0.861,0.497-1.937-0.125-1.937-1.118v-92.782c0-0.936,0.5-1.802,1.311-2.27l15.624-9.017c0.861-0.497,1.937,0.124,1.937,1.118
					V250.1C106.879,251.037,106.379,251.902,105.568,252.37z"/>
			</g>
			<g>
				<path style="fill:#020F70;" d="M107.907,254.057l-15.624,9.017c-0.861,0.497-1.937-0.125-1.937-1.118v-92.782
					c0-0.936,0.5-1.802,1.311-2.27l15.624-9.017c0.861-0.497,1.937,0.124,1.937,1.118v92.782
					C109.218,252.724,108.718,253.589,107.907,254.057z"/>
				<polygon style="fill:#2E45E8;" points="109.218,168.984 109.218,168.592 99.953,173.961 99.953,162.116 99.612,162.313 
					99.612,174.159 90.346,179.529 90.346,179.922 99.612,174.551 99.612,186.224 90.346,191.595 90.346,191.988 99.612,186.617 
					99.612,198.29 90.346,203.661 90.346,204.053 99.612,198.682 99.612,210.355 90.346,215.726 90.346,216.119 99.612,210.748 
					99.612,222.421 90.346,227.791 90.346,228.184 99.612,222.813 99.612,234.486 90.346,239.857 90.346,240.249 99.612,234.879 
					99.612,246.552 90.346,251.923 90.346,252.315 109.218,241.377 109.218,240.984 99.953,246.355 99.953,234.682 109.218,229.312 
					109.218,228.919 99.953,234.289 99.953,222.616 109.218,217.246 109.218,216.854 99.953,222.223 99.953,210.551 
					109.218,205.181 109.218,204.788 99.953,210.158 99.953,198.485 109.218,193.115 109.218,192.723 99.953,198.092 
					99.953,186.419 109.218,181.05 109.218,180.657 99.953,186.027 99.953,174.354 				"/>
			</g>
		</g>
		<g>
			<g style="opacity:0.3;">
				
					<linearGradient id="SVGID_00000095326327749688708490000013657602527205975955_" gradientUnits="userSpaceOnUse" x1="120.3281" y1="160.0713" x2="165.3474" y2="160.0713">
					<stop  offset="0.2851" style="stop-color:#000000"/>
					<stop  offset="1" style="stop-color:#000000;stop-opacity:0"/>
				</linearGradient>
				<path style="fill:url(#SVGID_00000095326327749688708490000013657602527205975955_);" d="M161.75,126.55l-37.825,22.024
					c-1.987,1.157-3.597,3.705-3.597,5.692v11.057v1.126v25.643c0,1.987,1.611,2.659,3.597,1.503l37.825-22.024
					c1.987-1.157,3.597-3.705,3.597-5.692v-37.825C165.347,126.066,163.737,125.393,161.75,126.55z"/>
				
					<linearGradient id="SVGID_00000090295666286042474490000005810380568193283497_" gradientUnits="userSpaceOnUse" x1="171.9585" y1="130.0088" x2="216.9778" y2="130.0088">
					<stop  offset="0.2851" style="stop-color:#000000"/>
					<stop  offset="1" style="stop-color:#000000;stop-opacity:0"/>
				</linearGradient>
				<path style="fill:url(#SVGID_00000090295666286042474490000005810380568193283497_);" d="M216.978,112.499v-0.958l0,0V97.99
					c0-1.987-1.611-2.659-3.597-1.503l-37.825,22.024c-1.987,1.157-3.597,3.705-3.597,5.692v37.825c0,1.987,1.611,2.659,3.597,1.503
					l37.825-22.024c1.987-1.157,3.597-3.705,3.597-5.692v-5.469v0v-0.958v0V112.499L216.978,112.499z"/>
				
					<linearGradient id="SVGID_00000111156586723253927240000006486527931254472867_" gradientUnits="userSpaceOnUse" x1="120.3281" y1="211.1033" x2="165.3474" y2="211.1033">
					<stop  offset="0.2851" style="stop-color:#000000"/>
					<stop  offset="1" style="stop-color:#000000;stop-opacity:0"/>
				</linearGradient>
				<path style="fill:url(#SVGID_00000111156586723253927240000006486527931254472867_);" d="M161.75,177.581l-37.825,22.024
					c-1.987,1.157-3.597,3.705-3.597,5.692v37.825c0,1.987,1.611,2.66,3.597,1.503l37.825-22.024
					c1.987-1.157,3.597-3.705,3.597-5.692v-4.702v-19.411v-13.712C165.347,177.098,163.737,176.425,161.75,177.581z"/>
				
					<linearGradient id="SVGID_00000039118502012039986190000013200444816222375309_" gradientUnits="userSpaceOnUse" x1="171.9585" y1="181.0408" x2="216.9778" y2="181.0408">
					<stop  offset="0.2851" style="stop-color:#000000"/>
					<stop  offset="1" style="stop-color:#000000;stop-opacity:0"/>
				</linearGradient>
				<path style="fill:url(#SVGID_00000039118502012039986190000013200444816222375309_);" d="M216.978,149.022
					c0-1.987-1.611-2.659-3.597-1.503l-37.825,22.024c-1.987,1.157-3.597,3.705-3.597,5.692v37.825c0,0.248,0.025,0.476,0.073,0.682
					c0.335,1.444,1.786,1.833,3.524,0.82l37.825-22.024c1.987-1.157,3.597-3.705,3.597-5.692v-9.452v0v-7.962v0V149.022z"/>
			</g>
			<g>
				<polygon style="fill:#FFFFFF;" points="194.915,117.632 179.443,126.641 179.443,123.563 194.915,114.555 				"/>
				<g>
					<path style="fill:#F8B525;" d="M163.871,172.692l-37.825,22.024c-1.987,1.157-3.597,0.484-3.597-1.503v-37.825
						c0-1.987,1.611-4.535,3.597-5.692l37.825-22.024c1.987-1.157,3.597-0.484,3.597,1.503v37.825
						C167.468,168.987,165.857,171.536,163.871,172.692z"/>
					
						<ellipse transform="matrix(0.6002 -0.7999 0.7999 0.6002 -73.5879 185.2562)" style="fill:#D90D65;" cx="148.52" cy="166.239" rx="14.51" ry="8.17"/>
					<polygon style="fill:#FFFFFF;" points="162.104,136.737 146.632,145.746 146.632,142.668 162.104,133.66 					"/>
					<polygon style="fill:#FFFFFF;" points="162.104,141.438 141.175,153.624 141.175,150.547 162.104,138.361 					"/>
					<path style="fill:#2E45E8;" d="M122.449,166.445C122.449,166.445,122.449,166.446,122.449,166.445l0,1.126c0,0,0,0,0,0
						c16.123-9.388,29.24-3.908,29.24,12.215l1.126-0.655C152.814,162.387,139.192,156.696,122.449,166.445z"/>
				</g>
				<g>
					<path style="fill:#F8B525;" d="M215.501,142.63l-37.825,22.024c-1.987,1.157-3.597,0.484-3.597-1.503v-37.825
						c0-1.987,1.611-4.535,3.597-5.692l37.825-22.024c1.987-1.157,3.597-0.484,3.597,1.503v37.825
						C219.098,138.925,217.488,141.473,215.501,142.63z"/>
					<polygon style="fill:#FFFFFF;" points="200.372,119.156 179.443,131.342 179.443,128.265 200.372,116.079 					"/>
					<path style="fill:#D90D65;" d="M196.589,153.642l-10.678,6.218v-16.515c0-2.949,2.39-6.731,5.339-8.448l0,0
						c2.949-1.717,5.339-0.718,5.339,2.23V153.642z"/>
					<polygon style="fill:#2E45E8;" points="219.098,130.511 191.728,146.448 191.728,129.559 219.098,113.623 219.098,112.664 
						190.77,129.159 190.77,147.964 219.098,131.469 					"/>
				</g>
				<g>
					<path style="fill:#F8B525;" d="M163.871,223.724l-37.825,22.024c-1.987,1.157-3.597,0.484-3.597-1.503v-37.825
						c0-1.987,1.611-4.535,3.597-5.692l37.825-22.024c1.987-1.157,3.597-0.484,3.597,1.503v37.825
						C167.468,220.019,165.857,222.568,163.871,223.724z"/>
					<path style="fill:#2E45E8;" d="M146.208,206.298c-10.721,6.242-19.411,19.993-19.411,30.714l19.411-11.303V206.298z"/>
					<g>
						<path style="fill:#FFFFFF;" d="M131.032,206.246c0,1.062-0.861,2.425-1.923,3.043c-1.062,0.618-1.923,0.259-1.923-0.803
							c0-1.062,0.861-2.425,1.923-3.043C130.171,204.824,131.032,205.184,131.032,206.246z"/>
						<path style="fill:#FFFFFF;" d="M136.502,203.06c0,1.062-0.861,2.425-1.923,3.043c-1.062,0.618-1.923,0.259-1.923-0.803
							c0-1.062,0.861-2.425,1.923-3.043C135.641,201.638,136.502,201.998,136.502,203.06z"/>
						
							<ellipse transform="matrix(0.6002 -0.7999 0.7999 0.6002 -104.7738 192.3783)" style="fill:#FFFFFF;" cx="140.05" cy="200.995" rx="2.563" ry="1.443"/>
						<polygon style="fill:#FFFFFF;" points="146.208,203 127.185,214.076 127.185,212.615 146.208,201.539 						"/>
					</g>
					<path style="fill:#D90D65;" d="M167.468,213.331l-8.447,4.918c-4.907,2.857-8.885,1.195-8.885-3.712v-10.526l17.331-10.091
						V213.331z"/>
				</g>
				<g>
					<path style="fill:#F8B525;" d="M215.501,193.662l-37.825,22.024c-1.987,1.157-3.597,0.484-3.597-1.503v-37.825
						c0-1.987,1.611-4.535,3.597-5.692l37.825-22.024c1.987-1.157,3.597-0.484,3.597,1.503v37.825
						C219.098,189.957,217.488,192.505,215.501,193.662z"/>
					<g>
						
							<ellipse transform="matrix(0.6002 -0.7999 0.7999 0.6002 -42.0462 233.4748)" style="fill:#FFFFFF;" cx="212.522" cy="158.796" rx="2.563" ry="1.443"/>
						<path style="fill:#FFFFFF;" d="M205.128,163.102c0,1.062,0.861,1.422,1.923,0.803c1.062-0.618,1.923-1.981,1.923-3.043
							c0-1.062-0.861-1.422-1.923-0.803C205.989,160.677,205.128,162.04,205.128,163.102z"/>
						<path style="fill:#FFFFFF;" d="M199.658,166.287c0,1.062,0.861,1.422,1.923,0.804s1.923-1.981,1.923-3.043
							c0-1.062-0.861-1.422-1.923-0.803C200.519,163.862,199.658,165.225,199.658,166.287z"/>
						<polygon style="fill:#FFFFFF;" points="195.423,174.344 214.446,163.267 214.446,161.806 195.423,172.883 						"/>
					</g>
					<path style="fill:#D90D65;" d="M174.079,190.273v23.91c0,1.987,1.611,2.659,3.597,1.503l13.573-7.903v-7.711
						C191.249,189.987,183.784,185.997,174.079,190.273z"/>
					<polygon style="fill:#2E45E8;" points="219.098,178.518 193.304,193.536 193.304,185.575 219.098,170.556 					"/>
				</g>
			</g>
		</g>
		<g>
			<path style="opacity:0.4;" d="M79.374,344.597c0,0-3.407-32.138,2.879-31.959c6.286,0.178,12.821,23.884,12.821,23.884
				s-0.977-38.836,8.008-38.688s11.084,31.178,11.084,31.178s3.79-15.876,11.49-13.296c7.7,2.58,11.997,34.131,11.997,34.131
				s0.523-13.629,8.008-11.375c12.5,3.764,14.675,53.044,14.675,53.044L79.374,344.597z"/>
			
				<linearGradient id="SVGID_00000038408156319627953430000002888849946119238325_" gradientUnits="userSpaceOnUse" x1="140.1031" y1="306.3239" x2="112.2705" y2="359.0594">
				<stop  offset="0" style="stop-color:#1CC967"/>
				<stop  offset="0.1691" style="stop-color:#1AC26F"/>
				<stop  offset="0.4343" style="stop-color:#15AD86"/>
				<stop  offset="0.7606" style="stop-color:#0C8CAA"/>
				<stop  offset="1" style="stop-color:#0470C9"/>
			</linearGradient>
			<path style="fill:url(#SVGID_00000038408156319627953430000002888849946119238325_);" d="M75.632,342.744
				c0,0-3.407-32.138,2.879-31.959c6.286,0.178,12.821,23.884,12.821,23.884s-0.977-38.836,8.008-38.688
				c8.985,0.148,11.084,31.178,11.084,31.178s3.791-15.876,11.49-13.296c7.7,2.58,11.997,34.131,11.997,34.131
				s0.523-13.629,8.008-11.375c12.5,3.764,14.675,53.044,14.675,53.044L75.632,342.744z"/>
			
				<line style="fill:none;stroke:#0B4D27;stroke-width:0.6576;stroke-linecap:round;stroke-linejoin:round;stroke-miterlimit:10;" x1="99.926" y1="303.836" x2="102.666" y2="358.411"/>
			
				<path style="fill:none;stroke:#0B4D27;stroke-width:0.6576;stroke-linecap:round;stroke-linejoin:round;stroke-miterlimit:10;" d="
				M97.094,308.63c0,0-0.032,6.33,3.695,12.394"/>
			
				<path style="fill:none;stroke:#0B4D27;stroke-width:0.6576;stroke-linecap:round;stroke-linejoin:round;stroke-miterlimit:10;" d="
				M106.957,321.619c0,0,0.476,12.901-5.182,19.049"/>
			
				<line style="fill:none;stroke:#0B4D27;stroke-width:0.6576;stroke-linecap:round;stroke-linejoin:round;stroke-miterlimit:10;" x1="120.629" y1="319.727" x2="115.652" y2="365.621"/>
			
				<path style="fill:none;stroke:#0B4D27;stroke-width:0.6576;stroke-linecap:round;stroke-linejoin:round;stroke-miterlimit:10;" d="
				M125.415,323.305c0,0-0.831,5.331-6.348,10.831"/>
			
				<path style="fill:none;stroke:#0B4D27;stroke-width:0.6576;stroke-linecap:round;stroke-linejoin:round;stroke-miterlimit:10;" d="
				M111.742,332.85c0,0-0.979,10.916,5.272,20.205"/>
			
				<line style="fill:none;stroke:#0B4D27;stroke-width:0.6576;stroke-linecap:round;stroke-linejoin:round;stroke-miterlimit:10;" x1="142.7" y1="342.674" x2="137.866" y2="378.81"/>
			
				<path style="fill:none;stroke:#0B4D27;stroke-width:0.6576;stroke-linecap:round;stroke-linejoin:round;stroke-miterlimit:10;" d="
				M139.085,342.674c0,0-0.577,2.97,2.447,8.731"/>
			
				<path style="fill:none;stroke:#0B4D27;stroke-width:0.6576;stroke-linecap:round;stroke-linejoin:round;stroke-miterlimit:10;" d="
				M147.974,354.627c0,0-1.409,9.636-8.712,13.754"/>
			
				<line style="fill:none;stroke:#0B4D27;stroke-width:0.6576;stroke-linecap:round;stroke-linejoin:round;stroke-miterlimit:10;" x1="80.003" y1="316.922" x2="83.043" y2="347.04"/>
			
				<path style="fill:none;stroke:#0B4D27;stroke-width:0.6576;stroke-linecap:round;stroke-linejoin:round;stroke-miterlimit:10;" d="
				M82.543,317.322c0,0,0.491,4.824-1.659,8.32"/>
			
				<path style="fill:none;stroke:#0B4D27;stroke-width:0.6576;stroke-linecap:round;stroke-linejoin:round;stroke-miterlimit:10;" d="
				M77.464,327.16c0,0-0.489,5.657,4.687,11.045"/>
		</g>
		<g>
			
				<linearGradient id="SVGID_00000010297686588527168320000015054666511750914733_" gradientUnits="userSpaceOnUse" x1="-538.2461" y1="75.2328" x2="-607.3342" y2="128.0193" gradientTransform="matrix(-0.9999 0.0117 0.0117 0.9999 -282.4651 1.2085)">
				<stop  offset="0.0191" style="stop-color:#6DBAF2"/>
				<stop  offset="0.1516" style="stop-color:#6BB9F1"/>
				<stop  offset="0.1993" style="stop-color:#64B3ED"/>
				<stop  offset="0.2332" style="stop-color:#59ABE6"/>
				<stop  offset="0.2607" style="stop-color:#489EDC"/>
				<stop  offset="0.284" style="stop-color:#328DCF"/>
				<stop  offset="0.302" style="stop-color:#1B7CC2"/>
				<stop  offset="0.5038" style="stop-color:#1D7EC3"/>
				<stop  offset="0.6149" style="stop-color:#2584C8"/>
				<stop  offset="0.7038" style="stop-color:#338ED0"/>
				<stop  offset="0.7811" style="stop-color:#479DDC"/>
				<stop  offset="0.8502" style="stop-color:#60B0EA"/>
				<stop  offset="0.88" style="stop-color:#6DBAF2"/>
			</linearGradient>
			<path style="fill:url(#SVGID_00000010297686588527168320000015054666511750914733_);" d="M339.215,132.322
				c-0.319-3.801-2.952-7.948-5.865-9.595l-0.448-0.253c0.014-0.245,0.025-0.491,0.022-0.751c-0.06-5.147-3.429-11.196-7.524-13.511
				c-0.527-0.298-1.04-0.517-1.535-0.666c-2.55-7.82-7.822-15.21-13.88-18.635c-3.627-2.05-6.931-2.332-9.517-1.157l-0.003-0.008
				l-0.042,0.026c-0.52,0.24-1.006,0.546-1.463,0.903l-5.57,3.437l0.012,0.021c-1.356-0.436-2.569-0.337-3.547,0.221l-0.005-0.024
				l-0.187,0.119c-0.026,0.017-0.053,0.033-0.079,0.05l-4.562,2.907l-2.134-1.206c-1.6-0.905-3.081-0.92-4.143-0.198l-0.018-0.026
				l-7.27,4.433l4.681,7.521l2.647-2.262c1.03,1.893,2.453,3.525,4.028,4.416l45.176,25.539l2.559,7.732l6.782-4.099l-0.002-0.003
				C338.652,136.589,339.428,134.848,339.215,132.322z"/>
			<path style="fill:#FFFFFF;" d="M325.992,127.213l-0.447-0.253c0.014-0.245,0.025-0.491,0.022-0.751
				c-0.06-5.147-3.429-11.196-7.524-13.511c-0.527-0.298-1.04-0.517-1.535-0.666c-2.551-7.82-7.822-15.21-13.88-18.635
				c-6.583-3.722-12.116-1.645-14.183,4.471c-0.315-0.228-0.634-0.442-0.959-0.626c-3.275-1.852-6.027-0.798-7.024,2.282
				c-0.322,0.994-1.215,1.262-2.216,0.697l-2.713-1.534c-2.913-1.647-5.483-0.441-5.717,3.048
				c-0.268,4.002,2.381,8.993,5.642,10.837l50.938,28.797c3.261,1.843,5.827-0.2,5.461-4.56
				C331.538,133.008,328.905,128.86,325.992,127.213z"/>
		</g>
		<g>
			<g>
				
					<linearGradient id="SVGID_00000181054081647085556150000003046153878045622665_" gradientUnits="userSpaceOnUse" x1="346.7256" y1="345.7099" x2="356.8275" y2="361.9608">
					<stop  offset="0.0509" style="stop-color:#000000"/>
					<stop  offset="1" style="stop-color:#000000;stop-opacity:0"/>
				</linearGradient>
				<path style="opacity:0.78;fill:url(#SVGID_00000181054081647085556150000003046153878045622665_);" d="M358.566,364.795
					l7.536-25.225l-3.135-1.893l-7.526,4.348l-2.047,7.376l-9.119,5.268l-0.823-2.013l-3.135-1.894l-7.674,4.434l9.001,19.651
					C348.292,370.91,354.108,367.451,358.566,364.795z M350.014,361.707l-1.176,4.258l-1.176-2.899L350.014,361.707z"/>
				
					<linearGradient id="SVGID_00000183226381805591140520000012862159895066002330_" gradientUnits="userSpaceOnUse" x1="270.2634" y1="390.2854" x2="280.6661" y2="407.0202">
					<stop  offset="0.0509" style="stop-color:#000000"/>
					<stop  offset="1" style="stop-color:#000000;stop-opacity:0"/>
				</linearGradient>
				<path style="opacity:0.78;fill:url(#SVGID_00000183226381805591140520000012862159895066002330_);" d="M294.206,402.634
					c0.465-1.942,0.723-3.927,0.723-5.924c0-4.5-1.26-7.491-3.446-8.95l0.008-0.017l-3.386-2.053l-0.035,0.003
					c-2.579-1.518-6.348-1.036-10.874,1.578l-12.353,7.137v24.848C273.023,414.772,283.314,408.922,294.206,402.634z
					 M275.371,399.249l4.668-2.697c1.334-0.771,2.533-1.166,3.562-1.202c0.464,0.925,0.721,2.177,0.721,3.776
					c0,5.521-2.984,10.485-7.424,13.05l-1.527,0.882V399.249z"/>
				
					<linearGradient id="SVGID_00000149363698419238991820000001158580127796324738_" gradientUnits="userSpaceOnUse" x1="307.928" y1="368.5687" x2="318.1226" y2="384.9686">
					<stop  offset="0.0509" style="stop-color:#000000"/>
					<stop  offset="1" style="stop-color:#000000;stop-opacity:0"/>
				</linearGradient>
				<path style="opacity:0.78;fill:url(#SVGID_00000149363698419238991820000001158580127796324738_);" d="M324.184,385.152
					l-0.056-0.034l-10.519,6.077v-2.129l11.605-6.705v-6.755l-3.141-1.897l-8.464,4.89v-1.672l13.173-7.611v-6.981l-3.141-1.897
					l-20.488,11.837v25.176C310.216,393.346,317.353,389.168,324.184,385.152z"/>
				
					<linearGradient id="SVGID_00000114777288375549269300000015290836534985164212_" gradientUnits="userSpaceOnUse" x1="247.295" y1="403.9096" x2="254.5266" y2="415.5429">
					<stop  offset="0.0509" style="stop-color:#000000"/>
					<stop  offset="1" style="stop-color:#000000;stop-opacity:0"/>
				</linearGradient>
				<path style="opacity:0.78;fill:url(#SVGID_00000114777288375549269300000015290836534985164212_);" d="M255.244,417.899v-14.234
					l-3.141-1.897l-7.387,4.268v6.756C246.055,413.569,250.666,416.715,255.244,417.899z"/>
			</g>
			<g>
				<g>
					<path style="fill:#D90D65;" d="M244.716,373.933l7.387-4.268l3.141,1.897l-3.141,30.045l-7.387,4.268V373.933z"/>
					<path style="fill:#D90D65;" d="M290.838,356.997l0.652-1.357l-3.386-2.053l-0.035,0.003c-2.579-1.518-6.348-1.036-10.874,1.578
						l-12.353,7.137v31.942l12.353-7.137c8.658-5.002,14.593-14.591,14.593-24.4C291.788,360.408,291.45,358.511,290.838,356.997z
						 M276.897,380.074l-4.668,2.697v-17.522l4.668-2.697c4.44-2.565,7.424-1.049,7.424,4.472
						C284.322,372.545,281.337,377.509,276.897,380.074z"/>
					<path style="fill:#D90D65;" d="M324.128,353.014l3.141,1.897l-3.141,5.084l-20.974,12.118v-31.942l20.488-11.837l3.141,1.897
						l-3.141,5.084l-13.173,7.611v5.384l11.605-6.705l3.141,1.897l-3.141,4.858l-11.605,6.705v5.841L324.128,353.014z"/>
					<path style="fill:#D90D65;" d="M353.222,336.982l-11.049,6.384l-2.051,7.39l-7.539,4.356l11.533-38.604l7.278-4.205
						l3.141,1.897l8.428,23.361l-4.547,6.339l-3.141-1.897L353.222,336.982z M351.055,331.572l-3.358-8.281l-3.358,12.161
						L351.055,331.572z"/>
				</g>
				<g>
					<path style="fill:#F8B525;" d="M247.857,375.83l7.387-4.268v31.942l-7.387,4.268V375.83z"/>
					<path style="fill:#F8B525;" d="M267.983,364.202l12.353-7.137c8.658-5.002,14.593-2.271,14.593,7.542
						c0,9.809-5.935,19.398-14.593,24.4l-12.353,7.137V364.202z M280.038,381.971c4.44-2.565,7.424-7.529,7.424-13.05
						c0-5.521-2.984-7.037-7.424-4.472l-4.668,2.697v17.522L280.038,381.971z"/>
					<path style="fill:#F8B525;" d="M327.268,354.911v6.981l-20.974,12.118v-31.942l20.488-11.837v6.981l-13.173,7.611v5.384
						l11.605-6.705v6.755l-11.605,6.705v5.841L327.268,354.911z"/>
					<path style="fill:#F8B525;" d="M356.362,338.879l-11.049,6.384l-2.051,7.39l-7.539,4.356l11.532-38.604l7.278-4.205
						l11.569,25.258l-7.688,4.442L356.362,338.879z M354.196,333.469l-3.358-8.281l-3.358,12.161L354.196,333.469z"/>
				</g>
				<polygon style="fill:#1F30A1;" points="344.114,316.507 347.255,318.404 335.723,357.008 332.582,355.111 				"/>
				<polygon style="fill:#1F30A1;" points="303.153,340.172 306.294,342.068 306.294,374.01 303.153,372.113 				"/>
				<polygon style="fill:#1F30A1;" points="264.842,362.305 267.983,364.202 267.983,396.144 264.842,394.247 				"/>
				<polygon style="fill:#1F30A1;" points="244.716,373.933 247.857,375.83 247.857,407.772 244.716,405.875 				"/>
			</g>
		</g>
		<g>
			<g>
				<path style="opacity:0.4;" d="M343.444,168.492l-64.097-37.083c-3.325-1.924-6.021,0.408-6.021,5.209v14.803
					c0,4.801,2.696,10.252,6.021,12.176l59.611,34.488l4.486,2.595c3.679,2.129,6.662,0.627,6.662-3.355v-17.77
					C350.106,175.574,347.124,170.621,343.444,168.492z"/>
				<g>
					<path style="fill:#FFFFFF;" d="M340.842,170.414l-64.097-37.083c-3.326-1.924-6.021,0.408-6.021,5.209v14.803
						c0,4.801,2.696,10.252,6.021,12.176l64.097,37.083c3.68,2.129,6.662,0.627,6.662-3.355v-8.885v-8.885
						C347.505,177.496,344.522,172.543,340.842,170.414z"/>
					<g>
						<path style="fill:#5267FF;" d="M283.097,147.868l-6.287,5.439c-0.436,0.378-0.691,1.076-0.714,1.954l0,0
							c-0.008,0.321-0.101,0.576-0.261,0.714l-0.573,0.495c-0.14,0.121-0.14,0.449,0,0.733c0.14,0.283,0.368,0.415,0.508,0.294
							l0.573-0.496c0.159-0.138,0.373-0.148,0.599-0.03h0c0.617,0.325,1.203,0.296,1.639-0.082l6.286-5.439L283.097,147.868z"/>
						<path style="fill:#F8B525;" d="M286.024,150.522l-0.246-0.498l1.251-1.082c0.367-0.318,0.367-1.176,0-1.918
							c-0.367-0.742-0.962-1.086-1.328-0.769l-1.251,1.082l-0.246-0.498c-0.137-0.277-0.358-0.405-0.495-0.286l-0.883,0.764
							l2.316,4.683l0.884-0.764C286.161,151.118,286.161,150.798,286.024,150.522z"/>
					</g>
				</g>
			</g>
			<g>
				<g>
					<path style="fill:#8FD0FF;" d="M300.393,158.431c0,2.016-1.634,2.703-3.651,1.534c-2.016-1.169-3.651-3.751-3.651-5.767
						s1.634-2.703,3.651-1.534C298.759,153.833,300.393,156.415,300.393,158.431z"/>
					<path style="fill:#5267FF;" d="M310.753,164.437c0,2.016-1.634,2.703-3.651,1.534c-2.016-1.169-3.651-3.751-3.651-5.767
						c0-2.016,1.634-2.703,3.651-1.534S310.753,162.421,310.753,164.437z"/>
					<path style="fill:#2133AB;" d="M321.113,170.442c0,2.016-1.634,2.703-3.651,1.534s-3.651-3.751-3.651-5.767
						c0-2.016,1.634-2.703,3.651-1.534C319.479,165.844,321.113,168.426,321.113,170.442z"/>
					<path style="fill:#0470C9;" d="M331.473,176.448c0,2.016-1.634,2.703-3.651,1.534c-2.016-1.169-3.651-3.751-3.651-5.767
						s1.635-2.703,3.651-1.534C329.839,171.85,331.473,174.432,331.473,176.448z"/>
					<path style="fill:#020F70;" d="M341.833,182.454c0,2.016-1.635,2.703-3.651,1.534c-2.016-1.169-3.651-3.751-3.651-5.767
						c0-2.016,1.635-2.703,3.651-1.534C340.198,177.856,341.833,180.438,341.833,182.454z"/>
					<path style="fill:#F84600;" d="M300.393,168.858c0,2.016-1.634,2.703-3.651,1.534c-2.016-1.169-3.651-3.751-3.651-5.767
						s1.634-2.703,3.651-1.534C298.759,164.26,300.393,166.842,300.393,168.858z"/>
					<path style="fill:#F78080;" d="M310.753,174.864c0,2.016-1.634,2.703-3.651,1.534c-2.016-1.169-3.651-3.751-3.651-5.767
						c0-2.016,1.634-2.703,3.651-1.534C309.119,170.266,310.753,172.848,310.753,174.864z"/>
					<path style="fill:#F84600;" d="M321.113,180.87c0,2.016-1.634,2.703-3.651,1.534c-2.016-1.169-3.651-3.751-3.651-5.767
						c0-2.016,1.634-2.703,3.651-1.534C319.479,176.272,321.113,178.854,321.113,180.87z"/>
					<path style="fill:#F87800;" d="M331.473,186.875c0,2.016-1.634,2.703-3.651,1.534c-2.016-1.169-3.651-3.751-3.651-5.767
						s1.635-2.703,3.651-1.534C329.839,182.277,331.473,184.859,331.473,186.875z"/>
					<path style="fill:#F8B525;" d="M341.833,192.881c0,2.016-1.635,2.703-3.651,1.534c-2.016-1.169-3.651-3.751-3.651-5.767
						c0-2.016,1.635-2.703,3.651-1.534C340.198,188.283,341.833,190.865,341.833,192.881z"/>
				</g>
			</g>
			
				<line style="fill:none;stroke:#0B4D27;stroke-width:0.25;stroke-linecap:round;stroke-linejoin:round;stroke-miterlimit:10;" x1="290.987" y1="144.551" x2="290.987" y2="171.738"/>
		</g>
		<g>
			<g>
				<path style="opacity:0.7;" d="M275.954,247.669l2.358-3.977l8.193,4.736c1.053,0.609,1.984,0.609,2.581,0.134l0.003,0.012
					l3.553-2.07l-0.005-0.006c0.538-0.295,0.878-0.903,0.886-1.79l0.31-34.761c0.017-1.869-1.417-4.221-3.202-5.253l-28.439-16.44
					c-1.054-0.609-1.985-0.609-2.583-0.133l-0.004-0.011l-3.573,2.081l0.007,0.008c-0.525,0.3-0.858,0.901-0.865,1.776l-0.31,34.761
					c-0.017,1.869,1.417,4.221,3.202,5.253l10.016,5.79l4.118,12.095L275.954,247.669z"/>
				<g>
					<path style="fill:#F8B525;" d="M277.776,242.075l8.157,4.715l0.688,3.425l3.553-2.07l-0.006-0.006
						c0.538-0.296,0.878-0.903,0.886-1.79l0.31-34.761c0.017-1.869-1.417-4.221-3.202-5.253l-28.439-16.44
						c-1.054-0.609-1.985-0.609-2.582-0.133l-0.004-0.011l-3.573,2.081l2.868,2.868l-0.281,31.473
						c-0.017,1.869,1.417,4.221,3.202,5.253l10.016,5.79l0.363,14.299l3.755-2.204L277.776,242.075z"/>
					<g>
						<path style="fill:#FFFFFF;" d="M269.731,251.514l4.29-7.235l10.016,5.79c1.785,1.032,3.246,0.353,3.262-1.516l0.31-34.761
							c0.017-1.869-1.417-4.221-3.202-5.253l-28.439-16.44c-1.785-1.032-3.246-0.353-3.262,1.516l-0.31,34.761
							c-0.017,1.869,1.417,4.221,3.202,5.253l10.016,5.79L269.731,251.514z"/>
					</g>
				</g>
				<g>
					<polygon style="fill:#2E45E8;" points="263.927,229.863 261.279,226.405 258.121,231.566 					"/>
					<path style="fill:#D90D65;" d="M280.55,211.645l-19.272,14.76c-0.331,0.254-0.007,1.233,0.724,2.188
						c0.731,0.955,1.592,1.523,1.924,1.27l19.272-14.76L280.55,211.645z"/>
					<path style="fill:#2E45E8;" d="M283.198,215.103c-0.331,0.254-1.192-0.315-1.924-1.27c-0.731-0.955-1.056-1.934-0.724-2.188
						c0.331-0.254,1.192,0.315,1.924,1.27C283.205,213.87,283.529,214.849,283.198,215.103z"/>
					<path style="fill:#2E45E8;" d="M278.961,215.606c-0.731-0.955-1.056-1.934-0.724-2.188l-1.733,1.327
						c-0.331,0.254-0.007,1.233,0.724,2.188c0.731,0.955,1.592,1.523,1.924,1.27l1.732-1.327
						C280.553,217.129,279.692,216.561,278.961,215.606z"/>
				</g>
			</g>
		</g>
		<g>
			<g>
				<path style="opacity:0.7;" d="M418.546,231.592l2.358-3.977l8.193,4.736c1.053,0.609,1.984,0.609,2.581,0.134l0.003,0.012
					l3.553-2.07l-0.005-0.006c0.538-0.296,0.878-0.903,0.886-1.79l0.31-34.761c0.017-1.869-1.417-4.221-3.202-5.253l-28.439-16.44
					c-1.054-0.609-1.985-0.609-2.583-0.133l-0.004-0.011l-3.573,2.081l0.008,0.008c-0.525,0.3-0.858,0.901-0.865,1.776l-0.31,34.761
					c-0.017,1.869,1.417,4.221,3.202,5.253l10.016,5.79l4.118,12.095L418.546,231.592z"/>
				<g>
					<path style="fill:#F87800;" d="M420.367,225.998l8.157,4.715l0.688,3.425l3.553-2.07l-0.006-0.006
						c0.538-0.296,0.878-0.903,0.886-1.79l0.31-34.761c0.017-1.869-1.417-4.221-3.202-5.253l-28.439-16.44
						c-1.054-0.609-1.985-0.609-2.583-0.133l-0.003-0.012l-3.574,2.081l2.868,2.868l-0.281,31.473
						c-0.017,1.869,1.417,4.221,3.202,5.253l10.016,5.79l0.362,14.299l3.755-2.204L420.367,225.998z"/>
					<g>
						<path style="fill:#F8B525;" d="M412.322,235.436l4.29-7.235l10.016,5.79c1.785,1.032,3.246,0.353,3.262-1.516l0.31-34.761
							c0.017-1.869-1.417-4.221-3.202-5.253l-28.439-16.44c-1.785-1.032-3.246-0.353-3.262,1.516l-0.31,34.761
							c-0.017,1.869,1.417,4.221,3.202,5.253l10.016,5.79L412.322,235.436z"/>
					</g>
				</g>
			</g>
			<polygon style="fill:#2E45E8;" points="400.689,199.932 423.768,197.26 410.739,218.444 408.768,207.424 			"/>
		</g>
		<g>
			<g>
				<g>
					
						<linearGradient id="SVGID_00000096050880701100774640000017830896205160343190_" gradientUnits="userSpaceOnUse" x1="2033.2031" y1="295.1056" x2="2033.2031" y2="337.5251" gradientTransform="matrix(-1 0 0 1 2337.6873 0)">
						<stop  offset="0.0509" style="stop-color:#000000"/>
						<stop  offset="1" style="stop-color:#000000;stop-opacity:0"/>
					</linearGradient>
					<path style="opacity:0.78;fill:url(#SVGID_00000096050880701100774640000017830896205160343190_);" d="M304.484,342.512h18.731
						c-1.274-12.04-2.146-18.796-3.539-25.587c-0.459-2.237-1.43-4.575-4.431-6.307c-2.959-1.709-6.86-2.563-10.761-2.563
						c-3.901,0-7.802,0.854-10.761,2.563c-3.001,1.732-3.972,4.07-4.431,6.307c-1.393,6.791-2.265,13.547-3.539,25.587H304.484z"/>
					
						<linearGradient id="SVGID_00000013905828598814546040000009940705930064065186_" gradientUnits="userSpaceOnUse" x1="2005.9939" y1="302.0852" x2="2026.6576" y2="302.0852" gradientTransform="matrix(-1 0 0 1 2337.6873 0)">
						<stop  offset="0" style="stop-color:#FFFFFF"/>
						<stop  offset="0.1268" style="stop-color:#F8FBFF"/>
						<stop  offset="0.3136" style="stop-color:#E4EFFF"/>
						<stop  offset="0.5375" style="stop-color:#C3DDFF"/>
						<stop  offset="0.7879" style="stop-color:#97C3FF"/>
						<stop  offset="1" style="stop-color:#6BAAFF"/>
					</linearGradient>
					<path style="fill:url(#SVGID_00000013905828598814546040000009940705930064065186_);" d="M311.03,302.085
						c0,5.923,4.626,10.724,10.332,10.724c5.706,0,10.332-4.801,10.332-10.724c0-5.923-4.626-10.724-10.332-10.724
						C315.655,291.361,311.03,296.162,311.03,302.085z M314.448,302.085c0-3.963,3.095-7.176,6.914-7.176
						c3.818,0,6.913,3.213,6.913,7.176c0,3.963-3.095,7.177-6.913,7.177C317.543,309.262,314.448,306.048,314.448,302.085z"/>
					
						<linearGradient id="SVGID_00000139269731352613759770000005477090189709907103_" gradientUnits="userSpaceOnUse" x1="2031.782" y1="301.6966" x2="2004.4441" y2="296.1136" gradientTransform="matrix(-1 0 0 1 2337.6873 0)">
						<stop  offset="0" style="stop-color:#FFFFFF"/>
						<stop  offset="0.1268" style="stop-color:#F8FBFF"/>
						<stop  offset="0.3136" style="stop-color:#E4EFFF"/>
						<stop  offset="0.5375" style="stop-color:#C3DDFF"/>
						<stop  offset="0.7879" style="stop-color:#97C3FF"/>
						<stop  offset="1" style="stop-color:#6BAAFF"/>
					</linearGradient>
					<path style="fill:url(#SVGID_00000139269731352613759770000005477090189709907103_);" d="M304.484,286.402h18.731
						c-1.274,12.04-2.146,18.796-3.539,25.587c-0.459,2.237-1.43,4.574-4.431,6.307c-2.959,1.709-6.86,2.563-10.761,2.563
						c-3.901,0-7.802-0.854-10.761-2.563c-3.001-1.732-3.972-4.07-4.431-6.307c-1.393-6.792-2.265-13.547-3.539-25.587H304.484z"/>
					
						<linearGradient id="SVGID_00000162336502752939194710000000572699040219653797_" gradientUnits="userSpaceOnUse" x1="2014.4724" y1="286.4015" x2="2051.9338" y2="286.4015" gradientTransform="matrix(-1 0 0 1 2337.6873 0)">
						<stop  offset="0" style="stop-color:#FFFFFF"/>
						<stop  offset="0.1268" style="stop-color:#F8FBFF"/>
						<stop  offset="0.3136" style="stop-color:#E4EFFF"/>
						<stop  offset="0.5375" style="stop-color:#C3DDFF"/>
						<stop  offset="0.7879" style="stop-color:#97C3FF"/>
						<stop  offset="1" style="stop-color:#6BAAFF"/>
					</linearGradient>
					<path style="fill:url(#SVGID_00000162336502752939194710000000572699040219653797_);" d="M317.745,294.057
						c7.293-4.211,7.293-11.102,0-15.312c-7.294-4.21-19.228-4.21-26.522,0c-7.293,4.211-7.293,11.102,0.001,15.312
						C298.517,298.268,310.452,298.268,317.745,294.057z"/>
					
						<radialGradient id="SVGID_00000072257417961834669240000014903027885651255956_" cx="306.327" cy="274.4539" r="31.0596" gradientUnits="userSpaceOnUse">
						<stop  offset="0" style="stop-color:#F8B525"/>
						<stop  offset="0.1643" style="stop-color:#F8AD22"/>
						<stop  offset="0.422" style="stop-color:#F8961A"/>
						<stop  offset="0.739" style="stop-color:#F8720D"/>
						<stop  offset="1" style="stop-color:#F84F00"/>
					</radialGradient>
					<path style="fill:url(#SVGID_00000072257417961834669240000014903027885651255956_);" d="M292.523,283.067
						c6.578-3.798,17.343-3.798,23.921,0c3.863,2.229,5.439,5.292,4.766,8.209c-0.872,1.004-2.02,1.946-3.465,2.781
						c-7.293,4.211-19.228,4.211-26.522,0c-1.446-0.835-2.594-1.778-3.466-2.782C287.085,288.358,288.661,285.296,292.523,283.067z"
						/>
					<g>
						<path style="fill:#FFFFFF;" d="M290.828,294.746c-3.783-2.184-5.868-5.149-5.868-8.344c0-3.194,2.082-6.159,5.865-8.344
							c7.529-4.344,19.787-4.344,27.315,0c3.783,2.184,5.866,5.15,5.866,8.344c0,3.195-2.082,6.16-5.866,8.344
							c-3.765,2.172-8.713,3.26-13.658,3.26C299.538,298.005,294.593,296.918,290.828,294.746z M291.618,279.434
							c-3.268,1.887-5.072,4.363-5.072,6.968c0,2.606,1.803,5.081,5.075,6.968c7.092,4.096,18.634,4.093,25.726,0
							c3.272-1.887,5.072-4.363,5.072-6.968c0-2.605-1.801-5.081-5.072-6.968c-3.548-2.048-8.204-3.074-12.864-3.074
							C299.826,276.36,295.166,277.385,291.618,279.434z"/>
					</g>
				</g>
			</g>
			
				<linearGradient id="SVGID_00000109741716500568675180000013360483439917345951_" gradientUnits="userSpaceOnUse" x1="379.5954" y1="9.6905" x2="349.5694" y2="34.9527" gradientTransform="matrix(0.8767 -0.481 0.481 0.8767 -13.8131 431.657)">
				<stop  offset="0.0736" style="stop-color:#FFFFFF;stop-opacity:0.6"/>
				<stop  offset="1" style="stop-color:#FFFFFF;stop-opacity:0"/>
			</linearGradient>
			<path style="fill:url(#SVGID_00000109741716500568675180000013360483439917345951_);" d="M302.232,296.277
				c0,0-3.317-8.781,1.586-13.972c-3.568-7.178,2.738-13.084,6.499-13.713c1.318-7.175,10.685-14.144,17.961-10.579
				c7.275,3.564,6.07,13.014-0.203,17.184c-6.273,4.17-10.713,2.96-10.713,2.96s-2.058,5.096-7.726,6.302
				C309.356,289.656,306.626,293.654,302.232,296.277z"/>
		</g>
		<g>
			<g>
				<path style="fill:#010838;" d="M368.699,206.485l0.207-0.363c-0.127-0.083-0.439-0.144-0.811,0.038
					c-0.017,0.007-0.034,0.012-0.049,0.022l-18.481,10.878c-0.309,0.182-0.453,0.553-0.347,0.896l5.026,16.326
					c0.037,0.121,0.154,0.201,0.28,0.192l0.182-0.013l19.084-11.439L368.699,206.485z"/>
				<path style="fill:#2E45E8;" d="M374.189,222.993l-19.483,11.467l-5.078-16.495c-0.113-0.366,0.041-0.761,0.371-0.955
					l18.517-10.899c0.206-0.121,0.471-0.018,0.541,0.21L374.189,222.993z"/>
				<path style="fill:#010838;" d="M386.3,229.961l-0.424,0.325l-11.687-6.721l-19.483,10.895v0.245c0,0.202,0.108,0.389,0.284,0.49
					l11.567,6.641c0.428,0.245,0.954,0.244,1.38-0.004l18.323-10.643c0.016-0.009,0.027-0.021,0.041-0.032
					c0.014-0.01,0.026-0.02,0.039-0.03c0.003-0.003,0.006-0.005,0.008-0.007C386.805,230.735,386.568,230.117,386.3,229.961z"/>
				<polygon style="fill:#FFFFFF;" points="372.696,222.255 355.606,232.314 350.928,218.08 368.018,208.021 				"/>
				<path style="fill:#2E45E8;" d="M374.189,222.993l12.07,6.941c0.264,0.152,0.264,0.532,0.001,0.684l-18.323,10.643
					c-0.426,0.248-0.953,0.249-1.38,0.004l-11.851-6.804L374.189,222.993z"/>
				<g>
					<path style="fill:#5267FF;" d="M378.996,233.359l-2.158-1.246c-0.394-0.227-1.036-0.231-1.434,0l-5.081,2.939
						c-0.398,0.231-0.389,0.604,0.005,0.831l2.158,1.246c0.4,0.231,1.036,0.231,1.434,0l5.081-2.939
						C379.399,233.958,379.397,233.59,378.996,233.359"/>
				</g>
				<polygon style="opacity:0.28;fill:#010838;" points="373.743,224.512 380.759,228.502 364.634,237.868 357.718,233.944 				"/>
				
					<line style="fill:none;stroke:#010838;stroke-width:0.0763;stroke-miterlimit:10;" x1="374.189" y1="222.993" x2="354.706" y2="234.461"/>
			</g>
			<g>
				<path style="fill:#F78080;" d="M377.464,204.299c0,0-1.021,4.48,0.387,6.287c0.727,0.933,2.013,0.836,2.013,0.836l0.47,4.6
					c0,0,3.503,0.941,4.705,0.47c1.202-0.47-0.889-5.28-0.68-6.534c0.209-1.255,1.098-6.221-1.202-6.848
					C380.857,202.483,377.878,201.411,377.464,204.299z"/>
				<path style="fill:#F78080;" d="M366.929,299.093l1.313,20.415c0,0-2.566,0.311-4.137,0.162
					c-1.571-0.149-0.576,1.055,1.849,2.236c2.424,1.181,3.88,1.715,5.032,1.27c1.152-0.446-0.396-2.812-0.14-4.373
					c0.256-1.561,2.732-19.081,2.732-19.081L366.929,299.093z"/>
				<path style="fill:#F78080;" d="M397.238,298.951l10.697,17.438c0,0-1.204,2.658-2.301,3.793c-1.5,1.551-0.897,2.446,1.972,1.026
					c2.417-1.196,3.657-1.924,4.468-2.856c0.81-0.932-1.663-2.301-2.166-3.801c-0.503-1.5-6.497-18.147-6.497-18.147
					L397.238,298.951z"/>
				<path style="fill:#2133AB;" d="M365.954,321.907c-2.424-1.181-3.42-2.385-1.849-2.236c0.919,0.087,2.174,0.017,3.062-0.057
					c-0.241,1.129,1.295,2.008,1.295,2.008l2.718-0.489c0.253,0.961,0.443,1.797-0.195,2.043
					C369.834,323.622,368.379,323.088,365.954,321.907z"/>
				<path style="fill:#2133AB;" d="M411.009,316.145c0.783,0.858,1.576,1.619,1.065,2.206c-0.81,0.932-2.051,1.66-4.468,2.856
					c-2.87,1.42-3.472,0.525-1.972-1.026c0.603-0.623,1.236-1.704,1.686-2.554c0.569,0.416,1.273,0.463,1.273,0.463L411.009,316.145
					z"/>
				<path style="fill:#010838;" d="M369.017,243.667c0,0-2.155,50.606-2.443,54.631c-0.288,4.025,4.743,3.48,6.899,3.752
					c2.156,0.272,8.428,4.992,15.38,4.297c6.952-0.695,10.78-6.324,12.649-7.043c1.868-0.719,3.234-1.38,3.234-1.38l-14.194-43.681
					c0,0,0.21-7.163-3.773-11.882L369.017,243.667z"/>
				<path style="opacity:0.68;" d="M368.797,248.805c0.136-3.175,0.22-5.137,0.22-5.137l17.753-1.307
					c2.563,3.037,3.387,7.076,3.65,9.577C380.578,258.082,372.522,252.436,368.797,248.805z"/>
				<path style="fill:#F78080;" d="M393.238,226.429c0,0,2.659,8.912,0,12.074c-2.659,3.162-9.487-3.141-9.487-3.141l4.547-8.362
					L393.238,226.429z"/>
				<path style="opacity:0.3;" d="M392.589,239.046L392.589,239.046c-2.975,1.724-8.837-3.684-8.837-3.684l4.547-8.362l1.649-0.191
					C389.533,229.533,388.296,239.536,392.589,239.046z"/>
				<path style="fill:#F8B525;" d="M389.357,215.433c3.522,0.503,4.863,7.618,5.63,11.499c0,0-3.043,2.587-6.492,1.94
					C385.045,228.226,389.357,215.433,389.357,215.433z"/>
				<path style="fill:#F8B525;" d="M387.217,237.75c2.798-9.326,4.65-20.5,4.65-20.5c-2.205-2.382-4.5-3.5-6.701-3.836
					c0,0,0,0-0.001,0c-1.891,0.833-3.202,0.687-3.875,0.491c-0.388-0.113-0.802-0.146-1.187-0.023c-4.238,1.343-7.32,4.56-7.32,4.56
					l-5.296,26.659c15.193,7.154,22.493-1.235,22.493-1.235C389.091,241.4,386.921,238.736,387.217,237.75z"/>
				<path style="opacity:0.35;" d="M367.486,245.101l4.84-20.181c0,0,1.355-1.475,3.534-3.103l2.217-0.347l-1.131,17.208
					l0.787,9.265C374.842,247.763,371.433,246.96,367.486,245.101z"/>
				<path style="fill:#F78080;" d="M352.961,230.131l1.029,3.26c0.216-0.647,0.593-2.045,0.716-1.301
					c0.181,1.096,0.399,2.532,0.399,2.532l8.248,4.248l4.767-9.943l6.795,3.469c0,0-4.258,12.818-9.743,12.967
					c-6.291,0.171-10.882-9.493-10.882-9.493s-1.738-1.573-1.846-2.795C352.336,231.852,352.961,230.131,352.961,230.131z"/>
				<path style="fill:#F8B525;" d="M375.127,216.736c0,0-5.031,2.111-8.552,12.191c0,0,2.3,3.899,8.84,4.258
					c0,0,2.707-7.556,2.664-11.715C378.034,217.311,376.375,216.342,375.127,216.736z"/>
				<path style="fill:#020F70;" d="M378.823,201.172c0,0-1.917,1.194-1.359,3.127c0.557,1.932,2.315,3.26,2.315,3.26
					s-0.072-1.327,0.646-1.184c0.718,0.144,1.184,1.579,0.287,2.942c0,0,1.11,2.051,3.676,1.331c0,0,0.31-1.654,1.026-3.125
					c0.716-1.471,1.146-3.731-0.468-5.382C383.846,201.016,380.666,200.131,378.823,201.172z"/>
				<path style="fill:#020F70;" d="M387.475,201.888c0,1.364-1.106,2.47-2.47,2.47s-2.47-1.106-2.47-2.47
					c0-1.364,1.106-2.47,2.47-2.47S387.475,200.524,387.475,201.888z"/>
			</g>
		</g>
		<g>
			<path style="fill:#1CC967;" d="M73.886,128.974l35.745-20.521l0,0c0.456-0.263,1.084-0.227,1.776,0.172
				c1.383,0.798,2.514,2.758,2.514,4.354c0,0.798-0.283,1.361-0.739,1.624l0,0l-35.744,20.521L73.886,128.974z"/>
			<path style="fill:#A9D4F2;" d="M75.662,129.146c-1.383-0.798-2.514-0.145-2.514,1.452c0,1.597,1.131,3.556,2.514,4.354
				c1.383,0.798,2.514,0.145,2.514-1.452C78.177,131.904,77.045,129.944,75.662,129.146z"/>
		</g>
		<g>
			<path style="fill:#1CC967;" d="M258.461,117.752l-0.092,41.216l0,0c0,0.526-0.345,1.052-1.037,1.452
				c-1.383,0.799-3.645,0.799-5.028,0.001c-0.691-0.399-1.037-0.925-1.037-1.451l0,0l0.092-41.216L258.461,117.752z"/>
			<path style="fill:#A9D4F2;" d="M257.424,119.204c1.383-0.799,1.382-2.105-0.001-2.903c-1.383-0.798-3.646-0.797-5.028,0.001
				c-1.383,0.799-1.382,2.105,0.001,2.903C253.779,120.003,256.042,120.002,257.424,119.204z"/>
		</g>
		<g>
			<path style="fill:#CFEBFF;" d="M392.489,170.492c0.029-10.285-7.211-22.825-16.161-27.993c-4.387-2.533-8.37-2.823-11.298-1.256
				l-4.698,2.668l1.262,0.879c-0.974,1.828-1.525,4.174-1.532,6.979c-0.029,10.292,7.205,22.822,16.161,27.993
				c2.561,1.478,4.984,2.191,7.141,2.219l0.197,1.229l3.4-1.921C390.392,179.382,392.474,176.056,392.489,170.492z"/>
			<path style="fill:#2E45E8;" d="M372.156,144.876c-8.956-5.171-16.238-1.015-16.267,9.27
				c-0.029,10.292,7.205,22.822,16.161,27.993c8.951,5.168,16.238,1.022,16.267-9.27
				C388.346,162.583,381.106,150.043,372.156,144.876"/>
			<path style="fill:#F8B525;" d="M372.144,148.902c-7.021-4.053-12.728-0.801-12.751,7.267
				c-0.023,8.067,5.647,17.889,12.668,21.942c7.021,4.053,12.728,0.801,12.751-7.266
				C384.835,162.777,379.165,152.956,372.144,148.902"/>
			<path style="fill:#FF8E00;" d="M360.603,156.978c0.023-8.067,5.73-11.32,12.751-7.266c0.148,0.085,0.291,0.187,0.437,0.278
				c-0.54-0.392-1.087-0.764-1.647-1.087c-7.021-4.053-12.728-0.801-12.751,7.266c-0.022,7.898,5.416,17.463,12.232,21.665
				C365.387,173.302,360.582,164.403,360.603,156.978z"/>
			<path style="fill:#2E45E8;" d="M380.99,160.786c-0.125-0.072-0.252-0.103-0.364-0.078l-8.568,1.928l-6.873-8.199
				c-0.094-0.113-0.196-0.199-0.296-0.257c-0.225-0.13-0.442-0.115-0.558,0.064c-0.161,0.255-0.049,0.762,0.258,1.123l7.215,8.608
				c0.095,0.109,0.195,0.194,0.296,0.252c0.124,0.072,0.255,0.106,0.362,0.079l8.882-1.999c0.285-0.067,0.357-0.475,0.157-0.918
				C381.382,161.121,381.188,160.901,380.99,160.786"/>
		</g>
	</g>
</g>
</svg>
