<?xml version="1.0"?>
<svg xmlns:rdf="http://www.w3.org/1999/02/22-rdf-syntax-ns#" xmlns="http://www.w3.org/2000/svg" xmlns:cc="http://creativecommons.org/ns#" xmlns:dc="http://purl.org/dc/elements/1.1/" xmlns:svg="http://www.w3.org/2000/svg" id="svg2" viewBox="0 0 547.82 374.54" version="1.0">
  <g id="layer1" transform="translate(-16.228 -15.154)">
    <path id="path2689" d="m319.26 389.45c-0.33-0.13-1.28-1.15-2.11-2.26-1.22-1.63-1.83-2.21-3.12-2.97-1.98-1.16-2.8-1.99-3.31-3.39-0.59-1.59-0.53-4.53 0.13-6.47 0.36-1.08 0.44-1.58 0.25-1.65-0.48-0.16-1.23-1.08-1.82-2.25-0.56-1.1-0.58-1.31-0.73-9-0.18-9.13 0.26-17.73 1.25-24.32 1.76-11.78 2.02-14 2.01-17.88 0-4.9-0.54-20.29-0.82-23.64-0.05-0.6-0.17-2.06-0.26-3.25-0.09-1.18-0.2-2.58-0.25-3.09-0.08-0.98-0.51-6.35-0.71-9.03-0.07-0.86-0.23-2.42-0.35-3.48-0.13-1.05-0.4-3.49-0.61-5.4s-0.43-3.86-0.48-4.32c-0.06-0.46-0.28-2.46-0.48-4.44-0.21-1.98-0.43-3.98-0.49-4.44-0.11-0.9-0.6-5.7-1.29-12.6-0.3-3.03-1.29-9.26-1.95-12.25-0.84-3.86-1.95-7.63-2.38-8.11-0.1-0.11-0.25 2.81-0.33 6.48-0.34 14.06-0.95 32.46-1.53 46.28-0.38 8.99-0.5 30.63-0.19 33.86 0.15 1.64 0.56 6.56 0.73 8.87 0.08 1.06 0.36 2.95 0.62 4.2 0.26 1.26 1.22 5.85 2.13 10.21 2.63 12.58 2.7 13.77 1.67 27.72-0.48 6.4-0.51 6.62-1.08 7.13l-0.59 0.53 0.61 0.89c0.83 1.22 0.91 1.7 0.78 4.37-0.19 3.8-1.23 5.61-3.43 5.94-1.59 0.24-1.8 0.5-2.14 2.64-0.34 2.21-0.51 2.67-1.1 2.99-0.24 0.13-1.98 0.57-3.88 0.99-3.25 0.73-3.76 0.78-9.44 0.87l-6 0.09-1.01-0.86c-1.17-1.01-1.75-2.62-1.75-4.86 0-1.27 0.13-1.64 1.24-3.57 2.36-4.09 4.52-8.58 4.27-8.89-0.13-0.15-1.07-0.33-2.09-0.39-3.67-0.22-6.34-1.65-6.63-3.55-0.06-0.46-0.29-4.13-0.5-8.16s-0.7-13.26-1.09-20.53c-0.39-7.26-0.93-17.36-1.19-22.44-0.55-10.5-0.65-11.84-1.95-27.85-0.52-6.4-1.06-12.29-1.2-13.08-0.5-2.87-3.26-14.58-4.3-18.24-1.16-4.1-3.01-13.07-5.54-26.89-0.64-3.49-0.61-3.42-1.5-3.6-1.23-0.24-2.04-0.61-2.19-1.01-0.16-0.4 0.16-3.35 0.7-6.55 0.19-1.12 0.57-3.5 0.84-5.28 0.28-1.78 0.54-3.53 0.6-3.88 0.07-0.42-0.06-0.77-0.37-1.06-0.79-0.71-2.56-3.55-5.07-8.13-2.81-5.13-2.77-4.94-3.55-15.26-1.24-16.35-1.71-21.88-1.94-23.08-0.45-2.37-0.96-11.3-1.11-19.65-0.17-9.25-0.28-7.93 2.06-23.76 0.27-1.78 0.7-4.75 0.97-6.6 1.86-12.668 2.62-16.158 4.23-19.352 1.25-2.49 2.7-3.464 8.15-5.497 6.84-2.554 18.36-7.374 19.82-8.294 0.57-0.356 1.3-1.239 2.02-2.432 0.63-1.03 2.11-2.938 3.29-4.24 1.19-1.302 2.29-2.707 2.46-3.122s0.37-2.293 0.46-4.174l0.14-3.419-0.95-1.481c-0.53-0.814-1.07-1.873-1.2-2.353-0.16-0.617-0.54-1.087-1.28-1.611-1.29-0.907-2.25-2.127-2.42-3.082-0.19-0.988-0.58-4.235-0.75-6.119-0.4-4.48-0.57-5.724-0.91-6.601-0.73-1.865-0.41-10.634 0.49-13.563 0.35-1.149 0.74-1.654 3.01-3.902 1.43-1.42 3.41-3.121 4.38-3.781 1.49-1.005 1.96-1.198 2.88-1.198 0.69 0 1.53-0.22 2.28-0.597 3.6-1.829 6.47-2.48 8.59-1.95 0.75 0.19 1.97 0.415 2.69 0.5 2.51 0.292 5.37 0.879 6.08 1.245 0.94 0.484 6.99 6.402 7.67 7.504 0.59 0.937 0.58 0.849 0.72 11.679l0.06 4.82 0.7 1.018 0.71 1.017-0.3 3.737c-0.45 5.82-0.63 6.421-2.8 9.314-0.69 0.925-1.32 2.005-1.41 2.401-0.08 0.396 0.01 1.692 0.22 2.88 0.31 1.771 0.58 2.504 1.51 4.064 1.27 2.141 3.27 4.413 5.15 5.84 1.52 1.155 9.39 4.645 12.36 5.479 1.16 0.323 3.07 0.859 4.26 1.189 13.05 3.63 13.38 3.744 14.78 5.147 1.03 1.027 1.17 1.314 1.64 3.33 1.29 5.473 2.1 13.984 3.38 35.444 0.96 15.99 1.01 17.89 0.91 32.17-0.11 14.86-0.16 15.65-1.4 23.52-1.66 10.48-3.35 15.71-6.66 20.59-0.65 0.95-1.8 2.7-2.56 3.89l-1.38 2.15 0.63 6.25c0.34 3.44 0.63 7.46 0.63 8.95l-0.01 2.7h-0.7c-0.39 0-1.24 0.11-1.88 0.25l-1.16 0.25 0.04 4.61c0.08 8.49-0.28 16.21-0.98 20.7-0.35 2.24-0.73 5.59-0.86 7.44-0.3 4.41-0.56 7.38-1.41 16.2-0.98 10.18-1.17 15.68-1.37 38.77-0.23 26.4-0.23 27.49 0.02 43.1 0.16 10.28 0.14 13.47-0.08 13.88-0.35 0.66-1.7 1.26-4.64 2.06-3.63 0.99-3.66 1.42-0.41 5.97 2.72 3.8 4.02 6.28 4.23 8.06 0.18 1.51-0.1 1.98-2.12 3.5-2.08 1.57-3.23 2.01-6.29 2.42-2.95 0.39-10.73 0.44-11.67 0.08zm-5.2-282.87c0.35-1.59 0.79-3.86 0.99-5.04 0.91-5.491 3.05-20.809 2.92-20.932-0.03-0.031-1.07 1.465-2.32 3.324s-2.53 3.578-2.83 3.821c-0.55 0.432-0.58 0.428-1.56-0.187-0.55-0.345-1.88-1.419-2.95-2.387l-1.94-1.761-1.87 2.056-1.88 2.056 1.48 2.124c0.81 1.169 1.67 2.645 1.93 3.282 0.25 0.637 1.12 2.562 1.94 4.279 2.18 4.575 4.21 9.385 4.69 11.115 0.24 0.83 0.51 1.43 0.6 1.32 0.1-0.11 0.46-1.49 0.8-3.07zm-19.77-2.42c0-1.42 1.01-6.405 2.08-10.292 0.47-1.724 1-3.835 1.16-4.691 0.31-1.549 0.31-1.561-0.4-2.583-0.39-0.565-0.82-1.35-0.95-1.745-0.14-0.394-0.33-0.717-0.43-0.717-0.09 0-1.39 1.355-2.89 3.012-1.66 1.844-2.86 2.983-3.09 2.939-0.21-0.04-0.67-0.648-1.02-1.35-0.77-1.538-1.18-2.015-1.18-1.373 0 1.129 4.1 13.35 5.66 16.89 0.66 1.48 1.06 1.45 1.06-0.09zm1.63-21.588c1.22-1.453 2.29-2.895 2.37-3.207 0.13-0.491-0.59-1.301-5.45-6.167-3.08-3.082-5.68-5.554-5.77-5.495-0.1 0.06-0.25 0.543-0.34 1.074-0.11 0.665-0.53 1.392-1.34 2.339-1.36 1.581-1.36 1.029 0.02 6.295 0.5 1.914 1.04 4.129 1.19 4.921s0.89 2.719 1.64 4.283l1.36 2.844 2.05-2.124c1.13-1.167 3.05-3.311 4.27-4.763zm18.93 1.56c3.2-4.601 3.34-4.952 3.79-9.242 0.54-5.182 0.56-5.066-0.7-6.603-0.6-0.725-1.19-1.318-1.32-1.318s-2.7 2.33-5.7 5.179c-3.01 2.849-5.89 5.565-6.42 6.037-0.92 0.832-0.94 0.877-0.6 1.519 0.4 0.737 5.27 5.602 6.96 6.935 0.59 0.471 1.23 0.829 1.41 0.795s1.35-1.52 2.58-3.302zm111.47 289.35c-2.61-0.33-7.64-1.37-8.12-1.68-0.31-0.2-0.79-0.86-1.05-1.47-0.44-1-0.46-1.23-0.19-2.44 0.29-1.29 0.46-1.5 4.89-6.02 4.55-4.64 6.83-7.47 7.97-9.93 0.5-1.07 0.58-1.59 0.58-3.9 0-1.86-0.09-2.75-0.3-2.91-0.16-0.13-1.11-0.26-2.1-0.29-0.99-0.02-1.87-0.12-1.96-0.21-0.27-0.28-1.15-9.22-1.5-15.21-0.18-3.12-0.39-5.77-0.46-5.89-0.11-0.19-0.56-5.44-1.47-17.23-0.21-2.66-0.79-7.32-1.31-10.44-0.52-3.11-1.06-6.73-1.21-8.05-0.52-4.74-0.81-5.88-3.76-15-3.25-10.03-8.24-24.73-8.5-25.04-0.09-0.11-0.24 1.94-0.33 4.56s-0.27 5.78-0.39 7.04c-0.13 1.25-0.34 3.52-0.47 5.04s-0.52 5.68-0.86 9.24c-0.34 3.57-0.71 9.29-0.82 12.72-0.47 14.58-0.73 23.38-0.98 32.44-0.14 5.3-0.36 10.05-0.47 10.56s-0.39 1.04-0.61 1.17c-1.27 0.76-1.35 0.94-2.17 4.82-0.44 2.1-0.81 4.16-0.81 4.57-0.01 0.92-0.47 1.35-2.17 2.01-0.72 0.28-1.91 0.81-2.64 1.16-1.27 0.62-1.46 0.65-5.4 0.65-2.82 0-4.39-0.11-5.07-0.33-0.93-0.31-1.08-0.29-2.28 0.26-0.71 0.33-2.26 1.32-3.45 2.21-3.75 2.81-4.18 2.95-11.98 3.86-5.56 0.64-6.87 0.57-9.93-0.52-1.37-0.49-2.19-1.86-2.28-3.79-0.05-1.35-0.03-1.41 0.91-2.23 0.92-0.81 8-4.39 12.9-6.54 1.29-0.56 2.61-1.23 2.94-1.49s1.32-1.52 2.2-2.8c0.88-1.27 1.99-2.8 2.46-3.39s0.83-1.24 0.79-1.46c-0.04-0.21 0.16-1.35 0.44-2.53 2.35-10 3.12-13.54 3.45-15.82 0.48-3.4 1.99-15.58 2.19-17.77 0.17-1.87-0.43-11.64-0.95-15.36-0.18-1.32-0.83-5.96-1.44-10.32-0.62-4.36-1.55-11.05-2.08-14.88-1.43-10.32-3.61-23.13-5.24-30.73l-1.45-6.72-0.51-7.92c-0.52-8.07-0.73-17.97-0.4-19.13 0.16-0.59 0.04-0.74-1.46-1.83-2.55-1.85-5.34-5.88-6.44-9.29l-0.62-1.92-0.23-14.64c-0.34-21.48 0.14-32.47 1.99-45.61 1.9-13.564 2.29-15.164 4.14-16.866 1.32-1.22 2.93-2.28 8.65-5.716 5.27-3.171 6.97-4.567 9.84-8.098 1.88-2.313 2.29-3.278 2.31-5.354 0-1.405-0.4-2.413-1.63-4.056-1.05-1.413-2.31-3.877-2.6-5.129-0.09-0.348-0.24-0.74-0.34-0.872-0.53-0.695-1.24-4.221-1.9-9.362-0.4-3.169-0.9-6.842-1.11-8.162-0.55-3.477-0.5-6.589 0.12-8.563 0.84-2.649 3.52-5.747 6.54-7.57 2.18-1.313 3.58-1.569 9.24-1.69l5.08-0.108 2 0.876c4.76 2.079 5.27 2.378 6.69 3.899 3.13 3.338 3.77 4.896 4.1 9.874 0.16 2.557 0.32 3.536 0.59 3.812 0.31 0.304 0.36 0.877 0.28 3.162-0.11 3.387-0.63 5.382-2.32 8.858l-1.21 2.493v4.985l2.58 2.718c1.42 1.494 3.28 3.575 4.14 4.623l1.57 1.906 6.42 1.966c10.15 3.108 11.44 3.556 14.4 5.006 2.41 1.179 2.92 1.539 3.74 2.605 0.52 0.68 1.12 1.614 1.34 2.076 0.55 1.211 2.94 13.607 3.49 18.127 1.4 11.44 2.46 21.74 2.55 24.6 0.05 1.78 0.21 4.03 0.35 4.99 0.27 1.83 0.35 5.75 0.13 6.47-0.07 0.23-0.35 2.14-0.62 4.23-0.28 2.1-0.67 4.15-0.89 4.55-0.88 1.72-9.2 14.05-10.88 16.13l-0.77 0.96 0.14 2.4c0.08 1.32 0.75 6.56 1.49 11.64 1.17 8.06 1.37 9.98 1.56 15.01 0.12 3.16 0.47 7.8 0.78 10.29l0.55 4.54-0.91 0.36c-1.07 0.42-1.21 0.81-1.63 4.34-0.5 4.24-0.17 8.22 0.96 11.56 0.24 0.73 0.6 2.3 0.8 3.48 1.13 6.85 3.65 21.51 4.35 25.32 0.45 2.44 1.2 6.76 1.66 9.6 0.47 2.84 1.17 6.24 1.56 7.56 1.74 5.87 1.71 5.62 1.7 13.84 0 4.14-0.11 12.44-0.23 18.45s-0.24 16.59-0.26 23.52l-0.03 12.61 0.74 2.28c0.58 1.77 0.81 3.05 1.02 5.76 0.16 1.91 0.21 3.98 0.11 4.6-0.22 1.44-1.23 2.82-2.84 3.9-0.69 0.47-1.5 1.02-1.79 1.24-0.3 0.21-0.97 0.41-1.51 0.43-0.91 0.05-1.07 0.18-2.5 1.99-1.85 2.33-3.77 4.23-5.07 5-1.06 0.63-4.32 1.74-7.78 2.65-2.25 0.59-5.15 0.88-6.74 0.68zm-208.84-10.32c-0.33-0.06-2.17-0.32-4.08-0.58-3.11-0.43-3.7-0.59-5.5-1.48-1.11-0.56-3.11-1.81-4.44-2.78-3.06-2.24-3.03-2.23-6.65-3.26-3.66-1.05-5.4-1.82-6.35-2.8-0.67-0.71-0.71-0.87-0.79-3.11-0.09-2.53 0.3-4.47 1.18-5.91 0.26-0.41 0.46-0.82 0.46-0.9s-0.44-0.22-0.97-0.31c-1.47-0.23-1.63-0.5-1.38-2.29 0.28-1.93 0.06-4.41-0.58-6.54-0.48-1.59-0.49-1.99-0.34-9.84 0.12-5.9 0.06-10.56-0.21-16.7-0.36-8.28-0.56-40.3-0.25-40.8 0.08-0.11 0.02-4.78-0.12-10.37-0.2-7.81-0.4-11.4-0.85-15.47-0.32-2.91-0.65-5.87-0.71-6.57-0.07-0.7-0.61-3.23-1.2-5.62s-1.07-4.53-1.07-4.76c0-0.22-0.1-0.46-0.22-0.54-0.12-0.07-0.16 0.26-0.1 0.77 0.07 0.5-0.11 2.14-0.39 3.66-1.04 5.65-1.22 6.64-1.45 8.16-0.13 0.86-0.33 2.16-0.46 2.88-0.3 1.79-2.54 10.49-4.74 18.37-1 3.56-1.97 7.07-2.16 7.8s-1.52 5.64-2.95 10.92c-3.56 13.09-3.86 14.24-4.09 15.48-1.31 7.31-1.98 11.75-2.3 15.19-0.21 2.28-0.53 5.49-0.7 7.14s-0.32 5.92-0.33 9.48c-0.02 3.57-0.1 9.51-0.19 13.2-0.14 6.16-0.19 6.75-0.6 7.04-0.39 0.28-0.44 0.67-0.44 3.56 0 1.98-0.11 3.44-0.28 3.76-0.15 0.29-0.72 0.96-1.27 1.49-0.54 0.52-1.78 1.84-2.74 2.92l-1.75 1.97-1.26-0.05c-1.24-0.04-1.31-0.01-2.78 1.35-2.35 2.18-4.66 3.7-6.08 4-1.39 0.3-4.46 0.16-8.21-0.36-1.32-0.18-3.02-0.39-3.77-0.45-2.21-0.2-2.9-0.6-3.54-2.08-0.43-1.01-0.52-1.56-0.42-2.54 0.16-1.5 0.56-2.29 2.33-4.5 0.72-0.91 1.81-2.28 2.4-3.03s1.98-2.44 3.08-3.74c1.95-2.31 3.55-4.93 3.29-5.37-0.08-0.12-0.73-0.35-1.46-0.51s-1.37-0.36-1.41-0.44c-0.04-0.07 0.07-1.49 0.24-3.14 0.41-3.86 0.5-22.71 0.15-28.92-0.15-2.51-0.34-8.45-0.42-13.21-0.16-9.07-0.19-8.48 1.09-21.12 1.04-10.14 1.32-14.77 1.55-25.2 0.14-6.02 0.49-14.48 0.74-17.58l0.12-1.5-0.79-0.33c-0.43-0.18-1.69-1.02-2.79-1.86-2.36-1.81-3.23-3.25-3.65-6.03-0.29-1.93-0.34-7.73-0.09-11.14l0.16-2.18-0.98-0.16c-0.54-0.09-1.36-0.34-1.83-0.56l-0.84-0.4v-12.74c0-7.01-0.07-19.11-0.15-26.9-0.15-13.71 0.08-26.68 0.63-34.81 0.12-1.85 0.29-4.71 0.36-6.36 0.28-6.26 0.65-10.83 1.22-15.24 0.33-2.51 0.81-6.29 1.07-8.4 0.73-5.97 1.16-8.746 1.43-9.248 0.48-0.888 3.83-2.864 13.44-7.914 7.35-3.858 9.45-5.049 13.93-7.877 6.3-3.982 6.88-4.367 7.26-4.801 0.2-0.231 0.49-1.443 0.67-2.762 0.26-1.946 0.26-2.505 0-3.241-0.45-1.251-1.17-2.209-1.67-2.209-0.24 0-0.94-0.664-1.59-1.501-0.95-1.222-1.29-1.945-1.85-3.9-0.9-3.156-1.15-6.549-0.55-7.46 0.49-0.747 0.51-1.016 0.82-7.663 0.3-6.497 0.68-7.889 3-10.733 1.24-1.521 3.73-3.489 4.67-3.69 0.35-0.074 1.66-0.518 2.92-0.987l2.28-0.852 3.96 0.139c7.14 0.25 9.46 1.141 13.46 5.187 3.32 3.35 3.92 4.508 3.94 7.564 0 1.194-0.14 3.634-0.32 5.422-0.32 3.216-0.31 3.26 0.22 4.16 0.51 0.867 0.53 1.064 0.37 4.31-0.27 5.343-1.13 8.323-2.43 8.323-0.64 0-0.88 0.59-1.29 3.121-0.47 2.946-0.58 5.645-0.28 6.562 0.31 0.935 2.04 2.633 4.93 4.839 1.54 1.172 2.44 1.564 10.69 4.646 4.95 1.851 11.1 4.325 13.67 5.497 3.94 1.795 4.75 2.251 5.13 2.892 0.57 0.985 3.67 11.766 3.87 13.496 0.15 1.3 0.63 4.76 1.1 8.04 0.13 0.92 0.29 2.11 0.36 2.64 0.06 0.53 0.28 2.09 0.47 3.48 0.2 1.38 0.47 3.28 0.6 4.2 0.65 4.57 1.35 18.76 1.8 36.13 0.2 7.72 0.48 17.82 0.61 22.44s0.31 12.42 0.39 17.34l0.16 8.93-0.7 0.27c-0.38 0.15-1.33 0.23-2.09 0.17-1.1-0.07-1.44-0.01-1.59 0.28-0.11 0.21-0.26 1.6-0.35 3.09-0.11 1.83-0.32 3.12-0.64 3.96-0.27 0.69-0.69 2.33-0.94 3.65-0.83 4.4-0.9 4.58-2.91 7.06-2.53 3.13-3.25 3.78-6.58 5.9-1.59 1.01-2.97 1.92-3.07 2.02s-0.05 3.23 0.1 6.95c0.36 8.31-0.05 30.68-0.64 35.28-0.2 1.54-0.53 4.1-0.73 5.68-0.57 4.42-1.01 7.43-1.54 10.32-0.26 1.46-0.64 3.67-0.84 4.93-0.2 1.25-0.53 3.14-0.72 4.2-0.2 1.05-0.46 2.89-0.59 4.08-0.25 2.36-0.79 6.84-1.35 11.16-0.41 3.22-0.78 10.05-1.02 18.82l-0.16 6.21-1.14 0.34c-1.26 0.36-1.26 0.36-0.87 1.11 1.24 2.33 5.93 6.45 12.2 10.74 3.32 2.27 5.43 3.94 6.09 4.84 0.29 0.39 0.52 1.17 0.59 1.97 0.1 1.25 0.06 1.38-0.65 2.04-0.91 0.85-4.09 2.1-6.24 2.45-1.77 0.28-5.82 0.47-6.74 0.3zm328.14-10.19c-2.05-0.65-2.52-0.71-4.74-0.63-1.55 0.06-2.6-0.01-2.81-0.17-0.18-0.15-0.4-0.86-0.49-1.58-0.29-2.61-0.59-4.17-0.83-4.41-0.14-0.15-0.25-1.5-0.25-3.2v-2.96h-0.83c-1.33 0-1.6-0.64-1.74-4.25-0.09-2.52-0.24-3.48-0.83-5.35-0.85-2.7-0.9-3.82-0.24-5.29 0.28-0.6 0.57-1.52 0.65-2.04 0.15-0.93 0.11-1-1.69-2.87l-1.84-1.92 0.15-3.96c0.08-2.18 0.24-4.62 0.35-5.43 0.14-0.98 0.12-2.02-0.07-3.15-0.24-1.41-0.44-1.86-1.18-2.68-0.49-0.54-0.9-1.01-0.91-1.04-0.02-0.07-0.19-1.64-0.9-8.16-0.28-2.48-0.56-4.86-0.63-5.29-0.07-0.42-0.24-2.11-0.36-3.74-0.22-2.84-0.27-3.04-1.17-4.57-1.29-2.18-1.14-1.47-1.82-8.67-0.2-2.06-0.84-6.08-1.43-9-1.2-5.87-1.5-7.75-2.66-16.8-0.62-4.86-1.04-7.15-1.89-10.33-1.2-4.5-3.76-15.2-3.77-15.74 0-0.64-0.41-1.05-0.75-0.77-0.4 0.33-0.14 10.28 0.41 16.27 1.02 10.96 1.29 14.37 1.53 19.09 0.44 8.81 0.75 13.52 0.98 14.52 0.12 0.53 0.75 2.9 1.41 5.28 0.87 3.2 1.28 5.23 1.56 7.84 0.21 1.94 0.77 6.1 1.25 9.25 0.83 5.48 0.86 5.9 0.74 10.28l-0.13 4.56 0.97 3 0.97 3-0.1 3.72c-0.09 3.21-0.17 3.86-0.61 4.71-0.28 0.54-0.47 1.18-0.42 1.44 0.05 0.25 0.27 1.19 0.48 2.09 0.34 1.44 0.36 2.34 0.14 7.32-0.14 3.13-0.18 5.95-0.1 6.27 0.13 0.47-0.01 0.72-0.7 1.32l-0.86 0.73-0.37 4.61c-0.27 3.56-0.47 4.86-0.85 5.73l-0.5 1.12-3.12-0.09c-2.77-0.07-3.14-0.04-3.26 0.32-0.07 0.22-0.5 0.74-0.96 1.14l-0.84 0.74h-6.31c-3.48 0-7.81-0.07-9.63-0.16l-3.3-0.16-0.46-0.74c-0.38-0.62-0.43-1-0.3-2.3 0.24-2.4 1.14-3.95 3.38-5.83 2.09-1.75 5.38-5.07 5.79-5.84 0.16-0.31 0.21-1.14 0.12-2.2-0.12-1.49-0.21-1.72-0.67-1.83-1.57-0.4-1.94-5.23-0.93-12.19l0.37-2.56-0.96-1.64c-0.52-0.9-1.47-3.1-2.1-4.88l-1.15-3.24 0.05-3.97 0.06-3.98-1.24-4.31c-1.18-4.1-1.25-4.45-1.27-7.31-0.02-2.25 0.07-3.32 0.39-4.3 0.69-2.18 0.57-3.15-0.65-5l-1.06-1.62-0.62-4.56c-0.35-2.51-0.84-6.07-1.11-7.92-0.26-1.85-0.68-5.31-0.94-7.68-0.26-2.38-0.75-5.78-1.09-7.55-0.87-4.61-2.97-13.19-3.47-14.18-0.24-0.46-0.94-3.27-1.56-6.24-1.08-5.13-2.26-10.34-2.79-12.3-0.19-0.73-0.35-0.9-0.83-0.9-0.33 0-0.8 0.24-1.05 0.54s-0.7 0.84-1.02 1.21c-0.45 0.54-0.79 0.68-1.71 0.73-0.88 0.05-1.3 0.22-1.8 0.72-2.11 2.11-2.66 2.42-4.43 2.52-1.11 0.07-2.19-0.04-3.21-0.32-1.4-0.38-1.68-0.57-3.25-2.25-2.71-2.89-2.6-2.56-2.6-7.79 0-4.23-0.03-4.55-0.48-4.92-0.47-0.4-0.48-0.75-0.54-23.57-0.06-26.3-0.01-27.59 2-47.05 0.27-2.57 0.69-7.27 0.94-10.44s0.61-7.33 0.81-9.24c0.19-1.92 0.42-4.29 0.49-5.28 0.89-11.72 1.12-13.11 2.43-14.908 0.98-1.355 6.1-5.912 8.21-7.317 1.09-0.724 3.73-2.375 5.88-3.669 5.85-3.521 7.33-4.545 9.23-6.392l1.73-1.683-0.2-2.618-0.2-2.617-1.21-1.104c-1.46-1.348-2.14-2.468-2.34-3.874-0.17-1.26-0.4-1.91-1.47-4.275-1.57-3.446-2.02-5.646-2.24-10.919-0.28-6.916 0.18-9.123 2.51-11.991 0.56-0.688 1.08-1.52 1.17-1.85 0.28-1.114 1.06-2.074 3.28-4.066 2.62-2.352 3.86-2.952 7.15-3.476 2.23-0.354 2.76-0.356 5.87-0.022 4.63 0.497 5.62 0.811 6.96 2.224 0.6 0.627 1.38 1.334 1.72 1.572 0.35 0.238 1.62 1.751 2.83 3.361 1.22 1.61 2.29 2.988 2.4 3.062 0.52 0.351 1.4 1.819 1.4 2.325 0 0.31 0.18 0.911 0.4 1.333 0.22 0.423 0.65 2.055 0.97 3.627 0.55 2.772 0.55 2.915 0.18 4.74-0.46 2.255-1.82 6.373-2.39 7.244-0.28 0.439-0.45 1.353-0.54 3.079-0.13 2.413-0.15 2.471-1.02 3.429-1.38 1.531-1.68 2.09-1.68 3.138 0 0.836 0.14 1.118 1.02 1.953 2.99 2.866 4.89 3.789 14.32 6.963 8.86 2.98 18.3 6.473 19.29 7.136 1.39 0.932 2.24 2.514 2.67 4.995 0.93 5.242 1.53 7.386 4.84 17.15 5.28 15.58 6.75 20.29 7.05 22.48 0.14 1.08 0.48 4.94 0.74 8.57 0.27 3.63 0.54 6.98 0.61 7.45 0.21 1.38-0.34 12.54-0.84 16.8-0.25 2.18-0.63 5.63-0.84 7.68-0.98 9.27-3.25 26.01-3.59 26.34-0.07 0.08-0.38 0.26-0.68 0.42s-0.52 0.4-0.49 0.53c0.09 0.5-0.43 4.78-0.68 5.54-0.17 0.53-0.59 0.98-1.29 1.39-1.07 0.63-3.24 2.78-3.24 3.22 0 0.13-0.38 0.66-0.84 1.17-0.58 0.64-1.48 1.2-3 1.85l-2.17 0.93 0.01 4.21c0 13.19 1.48 32.66 3.36 44.31 1.15 7.12 1.23 7.42 2.13 9.08 0.87 1.59 2.4 6.16 3.61 10.81 0.95 3.66 1.27 9.31 1.32 23.31 0.04 10.95 0.11 13.4 0.47 15.82 0.23 1.57 0.61 5.39 0.84 8.49l0.41 5.64-1.03 0.46c-0.97 0.43-1.03 0.52-1.03 1.4s0.17 1.12 2.22 3.17c1.8 1.81 2.48 2.7 3.6 4.77 1.36 2.49 2.04 4.78 1.72 5.78-0.2 0.64-1.68 1.38-4.04 2.02-1.9 0.52-2.82 0.61-7.1 0.7l-4.93 0.11-2.28-0.73zm-463.53-0.45c0-0.18-0.232-0.52-0.516-0.76-0.374-0.33-0.419-0.45-0.161-0.45 0.401 0 1.086 1.11 0.838 1.36-0.088 0.08-0.161 0.02-0.161-0.15zm37.341-0.56c0.09-0.24 0.23-0.37 0.3-0.3s0 0.27-0.16 0.43c-0.24 0.24-0.27 0.21-0.14-0.13zm-59.665-0.16c0-0.14 0.108-0.25 0.24-0.25s0.24 0.04 0.24 0.1-0.108 0.18-0.24 0.26-0.24 0.03-0.24-0.11zm41.925 0.07c-0.08-0.09-0.16-2.09-0.16-4.44 0-3.87 0.05-4.33 0.45-4.73 0.25-0.25 0.6-0.51 0.78-0.57 0.23-0.08 0.02-0.43-0.69-1.14-0.98-0.98-1.02-1.08-1.02-2.52 0-0.82-0.07-2.8-0.15-4.41l-0.16-2.92h-1.782l-1.83-4.88c-1.776-4.73-2.665-8.07-2.904-10.91-1.288-15.3-1.861-42.26-1.138-53.58 0.736-11.51 0.731-11.01 0.108-12.6-3.872-9.92-5.29-13.37-8.88-21.61-4.165-9.55-5.025-11.27-6.184-12.36-1.127-1.06-1.186-0.63-0.844 6.17 0.417 8.28 0.194 38.68-0.339 46.16-0.328 4.6-0.329 5.89-0.01 11.88 0.196 3.7 0.407 7.13 0.469 7.64 0.062 0.5 0.281 2.93 0.488 5.4 0.382 4.57 0.497 5.18 1.915 10.25 2.01 7.18 4.192 16.23 4.34 18.01 0.172 2.06-0.079 4.55-0.904 8.95l-0.509 2.71-1.454 1.42-1.455 1.42-0.099 3.18c-0.066 2.13-0.207 3.35-0.426 3.68-0.228 0.35-0.265 0.72-0.122 1.22 0.113 0.39 0.226 1.84 0.252 3.22 0.038 2.05 0.127 2.61 0.482 3 0.239 0.26 0.559 0.72 0.711 1.01 0.264 0.51 0.241 0.53-0.51 0.38-0.432-0.08-0.866-0.27-0.963-0.41-0.107-0.16-0.177-0.1-0.18 0.16-0.003 0.38-0.176 0.41-1.504 0.29-0.825-0.08-3.012-0.13-4.861-0.12-1.848 0.01-3.576 0.02-3.84 0.02-5.011 0.02-6.341-0.03-6.478-0.25-0.243-0.39-0.602-0.04-0.428 0.42 0.133 0.36 0.101 0.37-0.241 0.1-0.26-0.22-0.655-0.27-1.155-0.16-0.46 0.1-0.705 0.08-0.62-0.06 0.082-0.13-0.891-0.34-2.31-0.49-2.031-0.22-2.523-0.36-2.871-0.79-0.231-0.28-0.42-0.71-0.42-0.95s-0.346-1-0.769-1.68c-0.687-1.1-0.771-1.43-0.78-3.08l-0.012-1.84 1.43-1.8c0.787-0.99 2.055-2.46 2.818-3.27 1.602-1.71 1.726-1.98 2.223-4.82 0.485-2.77 0.467-3.92-0.118-7.77-0.738-4.86-1.045-5.75-2.537-7.43-0.702-0.78-1.404-1.67-1.559-1.96-0.426-0.79-0.72-7.89-0.644-15.55 0.065-6.53-0.223-10.91-1.129-17.18-0.058-0.4-0.328-3.05-0.6-5.88s-0.548-5.47-0.614-5.87-0.219-2.34-0.34-4.32c-0.144-2.34-0.428-4.44-0.811-6-0.79-3.22-2.808-10.74-2.936-10.95-0.056-0.09-1.524-5.44-3.262-11.89l-3.16-11.73-0.038-4.56-0.038-4.56-3.264-0.15c-1.795-0.09-3.367-0.22-3.494-0.3-0.126-0.08-1.242-0.3-2.48-0.49-2.424-0.37-4.237-1.05-5.035-1.89-0.275-0.29-1.352-1.8-2.392-3.35-1.556-2.32-2.027-3.26-2.65-5.26-0.679-2.19-0.745-2.66-0.637-4.56l0.121-2.12h-2.071l-0.132-1.02c-0.073-0.57-0.3-2.97-0.504-5.35-0.204-2.37-0.415-4.64-0.469-5.04-0.054-0.39-0.273-2.34-0.487-4.32s-0.422-3.87-0.462-4.2c-0.315-2.59-0.409-3.81-0.621-8.04-0.133-2.64-0.307-5.79-0.388-7-0.204-3.05-0.241-13.22-0.051-14.24 0.085-0.47 0.335-2.41 0.554-4.33 0.219-1.91 0.445-3.8 0.502-4.2 0.54-3.78 1.061-18.01 1.066-29.12 0.002-4.64 0.357-7.76 1.905-16.726 0.694-4.025 0.715-4.091 1.551-4.817 1.196-1.041 4.72-2.942 8.789-4.743 9.85-4.359 20.96-9.922 22.036-11.033 0.765-0.79 0.793-0.889 0.837-2.955 0.042-1.987-0.009-2.242-0.732-3.631-0.937-1.801-2.217-5.24-2.217-5.958 0-1.153-0.485-1.971-1.26-2.126-0.414-0.083-1.085-0.514-1.492-0.958-0.97-1.059-1.818-4.462-1.813-7.27 0.004-1.77 0.059-2.007 0.566-2.405 0.525-0.413 0.572-0.664 0.73-3.855 0.356-7.187 0.822-9.284 2.691-12.094 1.924-2.895 2.354-3.268 5.489-4.768 4.635-2.216 4.783-2.256 7.881-2.086 6.487 0.356 11.37 2.083 14.442 5.106 1.402 1.38 2.106 2.694 3.231 6.034 0.735 2.182 0.746 2.278 0.708 6.622-0.038 4.401-0.037 4.41 0.598 5.344 0.716 1.053 0.777 1.843 0.399 5.13-0.213 1.852-0.331 2.167-1.378 3.685-1.747 2.53-2.001 3.12-2.211 5.143-0.107 1.028-0.382 2.506-0.612 3.284-0.636 2.155-0.42 3.437 0.908 5.38 2.006 2.935 2.85 3.417 8.091 4.626 1.65 0.38 7.969 2.036 14.039 3.68 10.35 2.799 11.08 3.033 11.65 3.711 0.76 0.921 2.74 5.449 4.21 9.634 1.07 3.061 1.15 3.467 1.45 7.326 0.3 3.83 0.58 5.7 1.77 11.88 0.53 2.77 2.09 11.96 2.88 17.04 0.28 1.78 0.78 4.67 1.11 6.41 0.6 3.12 0.61 3.29 0.52 12.72l-0.09 9.56-2.33 13.65c-1.28 7.5-2.32 13.68-2.32 13.73 0 0.04-0.61 0.11-1.35 0.15l-1.36 0.07 0.01 1.32c0 0.73 0.08 2.78 0.17 4.56 0.17 3.19-0.15 7.02-0.85 10.09-0.25 1.11 0.2 4.09 3.11 20.4 0.53 2.97 1.13 6.37 1.34 7.56 0.2 1.19 0.53 3.03 0.73 4.08 0.36 1.91 0.64 4.32 1.56 13.33 0.26 2.57 0.6 5.59 0.74 6.72 0.41 3.05 0.6 56.92 0.22 60.17-0.2 1.69-0.58 3.25-1.22 5.03-0.69 1.9-0.94 2.96-0.94 3.99 0 0.77-0.29 2.54-0.64 3.94-0.6 2.4-0.68 2.55-1.42 2.86-0.73 0.31-0.76 0.38-0.58 1.19 0.1 0.47 0.48 1.44 0.83 2.16 0.61 1.24 1.2 1.85 5 5.19 1.18 1.04 2.09 3.45 2.09 5.53 0 1.44-0.02 1.49-1.11 2.49-0.74 0.68-1.41 1.06-2.01 1.16-1.87 0.3-3.45 1.09-4.16 2.08-0.37 0.52-0.86 0.95-1.09 0.95s-0.55 0.13-0.71 0.28c-0.22 0.23-0.28 0.2-0.28-0.12 0-0.47-0.27-0.52-0.68-0.12-0.21 0.22-0.28 0.22-0.28 0.01 0-0.2-0.17-0.22-0.64-0.04-0.35 0.13-0.69 0.18-0.76 0.11s0.02-0.12 0.2-0.12c0.17 0 0.26-0.06 0.19-0.13s-0.41-0.02-0.76 0.11c-0.47 0.18-0.63 0.17-0.64-0.05 0-0.19-0.09-0.16-0.24 0.07-0.15 0.22-0.3 0.27-0.41 0.12-0.25-0.33-2.79-0.38-2.98-0.06-0.11 0.18-0.38 0.16-0.9-0.05-0.54-0.23-0.92-0.24-1.45-0.05-0.48 0.16-0.78 0.17-0.87 0.01-0.1-0.15-0.25-0.15-0.44 0.01-0.32 0.26-2.26 0.22-2.71-0.06-0.15-0.09-0.53-0.07-0.85 0.05-0.35 0.13-0.73 0.13-0.98-0.01s-0.56-0.14-0.85 0.02c-0.25 0.13-0.54 0.16-0.64 0.07-0.1-0.1-0.13 0.12-0.06 0.49 0.13 0.7 0.11 0.75-0.14 0.5zm9.64-2.61c-0.07-0.07-0.21 0.06-0.3 0.3-0.13 0.34-0.1 0.37 0.14 0.13 0.16-0.16 0.23-0.36 0.16-0.43z"/>
  </g>
  <metadata>
    <rdf:RDF>
      <cc:Work>
        <dc:format>image/svg+xml</dc:format>
        <dc:type rdf:resource="http://purl.org/dc/dcmitype/StillImage"/>
        <cc:license rdf:resource="http://creativecommons.org/licenses/publicdomain/"/>
        <dc:publisher>
          <cc:Agent rdf:about="http://openclipart.org/">
            <dc:title>Openclipart</dc:title>
          </cc:Agent>
        </dc:publisher>
        <dc:title>men in black</dc:title>
        <dc:date>2008-12-05T12:43:37</dc:date>
        <dc:description>clip art, clipart, image, manager, manager, media, men in black, men in black, people, people, png, public domain, silhouette, silhouette, svg, team, team, </dc:description>
        <dc:source>http://openclipart.org/detail/20605/men-in-black-by-radacina</dc:source>
        <dc:creator>
          <cc:Agent>
            <dc:title>radacina</dc:title>
          </cc:Agent>
        </dc:creator>
        <dc:subject>
          <rdf:Bag>
            <rdf:li>clip art</rdf:li>
            <rdf:li>clipart</rdf:li>
            <rdf:li>image</rdf:li>
            <rdf:li>manager</rdf:li>
            <rdf:li>media</rdf:li>
            <rdf:li>men in black</rdf:li>
            <rdf:li>people</rdf:li>
            <rdf:li>png</rdf:li>
            <rdf:li>public domain</rdf:li>
            <rdf:li>silhouette</rdf:li>
            <rdf:li>svg</rdf:li>
            <rdf:li>team</rdf:li>
          </rdf:Bag>
        </dc:subject>
      </cc:Work>
      <cc:License rdf:about="http://creativecommons.org/licenses/publicdomain/">
        <cc:permits rdf:resource="http://creativecommons.org/ns#Reproduction"/>
        <cc:permits rdf:resource="http://creativecommons.org/ns#Distribution"/>
        <cc:permits rdf:resource="http://creativecommons.org/ns#DerivativeWorks"/>
      </cc:License>
    </rdf:RDF>
  </metadata>
</svg>
